<?xml version="1.0" encoding="utf-8"?>
<!-- Generator: Adobe Illustrator 16.0.0, SVG Export Plug-In . SVG Version: 6.00 Build 0)  -->
<!DOCTYPE svg PUBLIC "-//W3C//DTD SVG 1.1//EN" "http://www.w3.org/Graphics/SVG/1.1/DTD/svg11.dtd">
<svg version="1.1" id="Layer_1" xmlns="http://www.w3.org/2000/svg" xmlns:xlink="http://www.w3.org/1999/xlink" x="0px" y="0px"
	 width="512px" height="512px" viewBox="0 0 512 512" enable-background="new 0 0 512 512" xml:space="preserve">
<g>
	<path fill-rule="evenodd" clip-rule="evenodd" fill="#FCFCFC" d="M479.998,512c-88.667,0-177.332,0-266,0
		c-1.648-1.985-4.042-3.722-4.804-6.001c-1.942-5.811,2.405-10.108,9.834-10.113c40.653-0.023,81.304-0.013,121.955-0.013
		c1.953,0,3.904,0,7.162,0c-0.783-14.025-0.453-27.587-2.597-40.748c-2.008-12.329-10.493-21.005-22.12-25.896
		c-12.107-5.094-24.406-9.729-36.554-14.735c-2.531-1.045-4.128-0.847-6.026,1.244c-5.04,5.548-10.319,10.877-15.539,16.258
		c-5.776,5.956-9.563,5.962-15.614,0.07c-5.372-5.23-10.811-10.395-16.049-15.755c-2.003-2.052-3.674-2.602-6.511-1.442
		c-12.007,4.906-24.194,9.368-36.199,14.28c-10.763,4.401-18.23,12.298-21.766,23.349c-4.51,14.099-1.65,28.618-2.391,43.386
		c8.39,0,16.025,0.053,23.658-0.021c3.879-0.039,6.863,1.347,8.453,4.964c1.749,3.979,0.126,7.522-4.892,11.174
		c-52.999,0-106,0-158.999,0c-3.781-2.092-5.925-5.071-5.868-9.616c0.124-9.657-0.294-19.333,0.137-28.973
		c0.937-20.969,10.833-35.871,30.701-43.653c2.065-0.808,4.075-1.753,6.459-2.787c-1.977-2.336-3.485-4.102-4.979-5.881
		c-29.784-35.429-48.868-75.861-56.593-121.538c-1.601-9.465-2.588-19.034-3.857-28.554c0-10.333,0-20.666,0-30.999
		c1.634-11.339,2.869-22.753,4.963-34.006C24.929,104.125,110.136,20.759,212.385,3.938c9.497-1.562,19.074-2.638,28.614-3.938
		c10.666,0,21.334,0,31.999,0c1.612,0.305,3.212,0.759,4.84,0.892c43.878,3.563,84.119,17.594,120.799,41.897
		c5.146,3.411,6.431,8.028,3.542,12.209c-2.698,3.905-7.348,4.328-12.387,1.29c-7.267-4.381-14.447-8.931-21.917-12.931
		c-13.624-7.293-27.904-13.033-44.228-17.704c32.533,28.64,51.096,64.368,64.769,103.282c20.612-4.18,40.659-8.942,60.3-16.911
		c-10.689-14.34-22.409-26.566-35.213-37.801c-4.485-3.936-5.198-8.532-2.148-12.22c3.263-3.947,8.003-4.043,12.704,0.075
		c45.589,39.951,74.096,89.664,84.912,149.358c1.771,9.777,2.706,19.707,4.029,29.565c0,10,0,20,0,29.999
		c-0.287,1.44-0.727,2.868-0.839,4.321c-4.006,52.256-22.406,98.863-54.854,139.965c-3.039,3.85-6.204,7.598-9.571,11.713
		c2.521,1.075,4.464,1.964,6.446,2.745c17.265,6.795,27.975,19.135,29.978,37.708c1.151,10.704,0.419,21.602,0.87,32.396
		C485.241,504.855,484.046,508.927,479.998,512z M136.499,148.828c-9.071,31.707-13.558,64.937-14.146,98.639
		c0.929,0.265,1.241,0.431,1.556,0.433c26.48,0.028,52.96,0.09,79.44-0.043c1.711-0.009,3.539-1.335,5.102-2.368
		c7.037-4.648,13.653-10.084,21.1-13.918c5.777-2.974,12.558-3.999,19.079-5.946c0-22.598,0-45.482,0-67.425
		C211.303,155.08,174.371,151.993,136.499,148.828z M391.717,247.962c-0.834-34.523-5.123-67.687-14.239-99.087
		c-37.726,3.13-74.785,6.206-112.118,9.303c0,22.077,0,44.935,0,67.819c0.917,0.255,1.542,0.517,2.188,0.595
		c15.442,1.857,28.496,8.497,39.633,19.295c1.414,1.371,4.11,1.979,6.215,1.989c23.81,0.137,47.62,0.086,71.428,0.086
		C386.947,247.962,389.073,247.962,391.717,247.962z M120.644,145.388c-22.137-6.278-43.651-12.38-65.601-18.606
		c-23.255,36.432-36.029,76.737-37.664,120.924c29.706,0,58.937,0,88.628,0C106.93,212.8,111.324,178.579,120.644,145.388z
		 M496.648,247.754c-1.815-44.418-14.479-84.798-37.627-120.964c-22.208,6.298-43.737,12.402-65.67,18.622
		c9.358,33.146,13.653,67.522,14.682,102.343C437.813,247.754,466.921,247.754,496.648,247.754z M141.731,131.765
		c35.875,5.804,71.272,8.487,106.925,8.77c0-41.554,0-82.474,0-123.493c-1.123,0-1.954-0.062-2.771,0.016
		c-0.992,0.094-1.977,0.279-2.956,0.468c-15.399,2.958-28.946,9.861-40.928,19.78C171.968,62.167,154.962,95.374,141.731,131.765z
		 M265.206,140.591c36.111-0.473,71.501-2.882,106.95-8.833c-10.365-29.521-23.898-56.616-44.573-79.681
		c-12.046-13.437-25.94-24.489-43.094-30.721c-6.084-2.211-12.54-3.399-19.283-5.174C265.206,58.331,265.206,99.118,265.206,140.591
		z M122.975,280.161c1.397,0.313,2.19,0.539,2.999,0.661c22.966,3.462,40.893,19.82,45.506,42.495
		c1.443,7.092,0.859,14.58,1.516,21.862c0.19,2.109,0.979,4.534,2.321,6.112c11.65,13.729,5.399,33.199-12.172,37.81
		c-1.483,0.388-3.272,1.714-3.858,3.063c-3.412,7.863-8.535,14.2-15.525,19.141c-3.752,2.651-3.444,5.579,0.669,7.279
		c6.146,2.54,12.294,5.107,18.573,7.288c1.432,0.5,3.667-0.089,5.069-0.94c5.653-3.436,10.766-7.985,16.738-10.624
		c12.615-5.576,25.68-10.126,38.468-15.319c1.998-0.813,4.49-2.506,5.041-4.313c0.955-3.133,0.296-6.034-3.366-8.315
		c-8.996-5.61-15.381-13.716-18.993-23.743c-0.994-2.758-2.493-3.69-5.252-4.18c-10.59-1.883-17.868-8.035-21.047-18.31
		c-3.18-10.28-0.484-19.328,6.959-27.084c1.137-1.188,2.27-3.017,2.275-4.551c0.053-14.963-0.786-30.006,6.289-44.025
		c-24.688,0-48.728,0-73.054,0C122.422,269.884,122.69,274.853,122.975,280.161z M46.14,495.672c34.571,0,69.14,0,104.084,0
		c1.494-18.358-2.633-37.169,6.188-54.774c-5.863-2.386-11.154-4.748-16.617-6.608c-1.235-0.422-3.475,0.472-4.549,1.498
		c-4.21,4.016-8.073,8.395-12.193,12.51c-4.367,4.364-8.6,4.417-13.077,0.197c-4.36-4.107-8.454-8.511-12.981-12.418
		c-1.266-1.091-3.942-1.69-5.477-1.138c-9.375,3.37-18.672,6.982-27.871,10.811c-9.625,4.003-15.996,11.416-17.268,21.586
		C45.238,476.464,46.14,485.851,46.14,495.672z M391.803,264.381c-24.365,0-47.884,0-71.522,0c1.323,4.135,3.209,7.847,3.61,11.712
		c1.057,10.228,1.396,20.526,2.208,30.782c0.156,1.977,0.597,4.436,1.865,5.735c7.651,7.845,10.54,16.947,7.345,27.443
		c-3.201,10.509-10.738,16.419-21.433,18.669c-1.547,0.325-3.456,1.857-4.05,3.303c-4.295,10.491-10.78,19.161-20.529,25.05
		c-3.313,2.003-2.636,4.857-2.269,7.415c0.209,1.464,1.912,3.289,3.384,3.904c12.118,5.063,24.519,9.493,36.463,14.926
		c6.714,3.056,12.671,7.749,19.109,11.463c1.565,0.903,3.933,1.63,5.492,1.112c6.304-2.092,12.483-4.592,18.599-7.202
		c1.431-0.609,3.285-2.146,3.399-3.398c0.12-1.336-1.281-3.258-2.555-4.193c-6.473-4.742-11.557-10.601-14.606-17.999
		c-1.091-2.649-2.516-3.654-5.284-4.301c-15.672-3.651-22.853-22.417-13.06-35.121c3.381-4.386,4.454-8.524,4.087-13.616
		c-0.167-2.318-0.114-4.668,0.031-6.991c1.406-22.216,12.043-38.393,32.147-47.953c5.164-2.456,10.951-3.61,16.822-5.48
		C391.292,274.851,391.539,269.753,391.803,264.381z M468.528,495.693c0-8.548,0.549-16.711-0.125-24.771
		c-1.073-12.765-8.009-21.516-20.076-26.16c-8.225-3.167-16.432-6.396-24.528-9.873c-3.032-1.305-5.04-1.222-7.312,1.458
		c-3.547,4.186-7.487,8.051-11.376,11.937c-4.378,4.37-8.595,4.44-13.093,0.211c-4.37-4.109-8.559-8.409-12.947-12.496
		c-0.987-0.919-2.755-2.109-3.688-1.789c-5.904,2.021-11.674,4.433-16.057,6.154c1.567,9.999,3.526,18.924,4.229,27.946
		c0.703,9.027,0.156,18.147,0.156,27.384C399.029,495.693,433.492,495.693,468.528,495.693z M105.912,264.405
		c-29.874,0-59.098,0-88.326,0c-0.074,0.862-0.173,1.358-0.151,1.85c1.761,38.933,12.179,75.372,31.585,109.191
		c8.899,15.51,19.424,29.848,31.613,42.942c1.998,2.146,8.772,1.501,10.424-1.229c1.78-2.938-0.006-4.73-2.509-6.449
		c-6.457-4.438-11.306-10.36-14.268-17.608c-1.085-2.652-2.516-3.646-5.282-4.295c-16.29-3.826-22.972-23.514-12.243-36.364
		c2.463-2.948,3.572-5.675,3.3-9.36c-0.231-3.146-0.113-6.326-0.006-9.488c0.516-15.39,6.342-28.404,17.585-38.95
		c8.11-7.607,17.854-11.968,29.005-13.991C106.391,275.11,106.155,269.855,105.912,264.405z M407.341,280.481
		c1.433,0.283,2.391,0.445,3.334,0.667c22.698,5.339,37.374,19.174,42.727,41.891c1.688,7.172,0.961,14.892,1.609,22.338
		c0.172,1.964,0.888,4.228,2.133,5.693c11.905,14.033,5.782,33.257-12.171,38.031c-1.258,0.333-2.891,1.258-3.336,2.328
		c-3.487,8.41-8.978,15.047-16.302,20.433c-1.13,0.831-1.63,4.592-0.766,5.678c2.604,3.266,7.087,2.753,10.059-0.534
		c30.577-33.812,50.068-73.149,58.216-117.976c2.065-11.363,2.903-22.948,4.342-34.708c-30.348,0-59.586,0-89.087,0
		C407.846,269.708,407.606,274.821,407.341,280.481z M218.812,316.147c0,10.451-0.32,20.591,0.077,30.699
		c0.592,15.069,11.694,28.274,26.484,31.04c6.462,1.206,13.286,1.317,19.87,0.862c15.916-1.097,29.152-13.33,30.77-29.168
		c1.128-11.056,0.581-22.281,0.685-33.432c0.008-0.825-0.557-2.091-1.221-2.425c-8.77-4.406-15.005-11.36-19.834-20.057
		C259.146,307.886,239.666,313.465,218.812,316.147z M187.484,26.889c-49.739,15.083-90.14,43.533-122.932,86.125
		c21.059,5.777,40.817,11.197,60.408,16.572C146.716,79.834,145.227,73.317,187.484,26.889z M205.399,301.268
		c2.343-0.419,4.282-0.95,6.248-1.091c23.59-1.665,45.276-7.387,60.986-27.043c3.844-4.811,10.931-3.009,13.361,2.782
		c1.669,3.977,3.013,8.131,5.068,11.896c4,7.345,10.068,12.075,18.619,13.333c2.49-34.869-19.203-59.112-52.52-58.963
		C224.255,242.327,202.51,267.083,205.399,301.268z M129.424,339.215c-11.839,9.351-26.632,13.799-42.379,16.008
		c0,8.201-0.365,16.018,0.086,23.789c0.662,11.426,10.302,21.583,21.508,22.914c4.432,0.523,8.978,0.492,13.443,0.227
		c13.258-0.789,23.572-11.514,23.918-24.81c0.183-6.978,0.12-13.969-0.005-20.951c-0.023-1.31-0.498-3.008-1.399-3.839
		C139.783,348.099,134.767,343.867,129.424,339.215z M369.05,355.173c0,8.137-0.313,15.788,0.07,23.404
		c0.58,11.496,9.926,21.791,21.133,23.286c4.742,0.633,9.645,0.555,14.434,0.232c12.718-0.862,22.909-11.541,23.315-24.334
		c0.227-7.145,0.117-14.302,0.034-21.453c-0.014-1.198-0.287-2.8-1.076-3.521c-4.953-4.524-10.09-8.853-15.51-13.546
		C399.601,348.466,384.999,353.034,369.05,355.173z M437.467,340.179c1.948-16.163-2.883-28.829-15.713-37.114
		c-14.874-9.605-30.746-9.701-45.782-0.516c-13.384,8.179-18.544,21.097-17.671,37.06c19.403-1.136,37.26-4.688,50.321-20.531
		c4.751-5.761,11.663-4.1,14.471,2.87c1.599,3.975,3.313,8.082,5.884,11.432C431.12,336.173,434.586,337.952,437.467,340.179z
		 M156.644,339.613c0.647-16.627-4.759-29.764-18.854-37.726c-15.115-8.538-30.802-8.246-45.321,1.63
		c-12.455,8.476-17.071,21.016-16.235,36.114c19.781-1.185,37.786-4.94,50.869-21.099c4.104-5.066,11.22-3.373,13.687,2.711
		c0.81,2.003,1.31,4.142,2.25,6.073C145.781,332.946,149.201,337.921,156.644,339.613z M257.582,417.384
		c4.35-7.837,15.76-10.72,12.596-22.271c-8.517,0-16.763,0-24.782,0C241.558,406.875,252.02,410.183,257.582,417.384z
		 M124.542,418.582c-5.362,0-10.747,0-16.299,0c-1.904,7.49,4.837,9.176,7.893,13.335
		C125.367,423.338,125.367,423.338,124.542,418.582z M398.587,432.764c2.352-5.576,9.681-7.024,8.293-14.117
		c-5.857,0-11.244,0-16.641,0C388.349,426.072,395.19,427.65,398.587,432.764z M201.904,342.241c0-6.928,0-13.059,0-19.602
		c-5.031,1.79-7.134,5.027-7.204,9.566C194.626,337.02,197.073,340.168,201.904,342.241z M313.274,322.679c0,6.751,0,12.88,0,19.467
		c4.664-2.058,6.979-5.162,6.993-9.73C320.277,327.88,318.228,324.604,313.274,322.679z M68.945,371.112
		c0.462,0.008,0.925,0.013,1.387,0.019c0-2.909,0-5.818,0-8.726c-0.462-0.01-0.925-0.018-1.387-0.025
		C68.945,365.289,68.945,368.2,68.945,371.112z M350.925,371.117c0.497-0.021,0.995-0.041,1.495-0.063c0-2.906,0-5.813,0-8.72
		c-0.5,0.014-0.998,0.023-1.495,0.037C350.925,365.286,350.925,368.203,350.925,371.117z"/>
</g>
</svg>
