<?xml version="1.0" encoding="utf-8"?>
<!-- Generator: Adobe Illustrator 16.0.0, SVG Export Plug-In . SVG Version: 6.00 Build 0)  -->
<!DOCTYPE svg PUBLIC "-//W3C//DTD SVG 1.1//EN" "http://www.w3.org/Graphics/SVG/1.1/DTD/svg11.dtd">
<svg version="1.1" id="Layer_1" xmlns="http://www.w3.org/2000/svg" xmlns:xlink="http://www.w3.org/1999/xlink" x="0px" y="0px"
	 width="512px" height="512px" viewBox="0 0 512 512" enable-background="new 0 0 512 512" xml:space="preserve">
<g>
	<defs>
		<rect id="SVGID_1_" x="42.441" y="2.973" width="430.35" height="512"/>
	</defs>
	<clipPath id="SVGID_2_">
		<use xlink:href="#SVGID_1_"  overflow="visible"/>
	</clipPath>
	<g clip-path="url(#SVGID_2_)">
		<path fill="#af231c" d="M472.791,514.968l-76.387-49.683l-62.837,47.626l-76.287-68.722l-79.934,65.019l-57.354-44.043
			l-77.552,49.642V71.629c0-37.855,30.798-68.653,68.653-68.653h293.044c37.855,0,68.652,30.797,68.652,68.653V514.968z
			 M257.952,417.537l76.729,69.118l60.834-46.108l57.024,37.089V71.629c0-26.688-21.713-48.4-48.4-48.4H111.094
			c-26.688,0-48.4,21.712-48.4,48.4v406.168l58.356-37.354l55.935,42.953L257.952,417.537z"/>
	</g>
	<g clip-path="url(#SVGID_2_)">
		<path fill="#af231c" d="M372.938,114.697H105.154c-5.593,0-10.126-4.534-10.126-10.126s4.534-10.126,10.126-10.126h267.784
			c5.593,0,10.126,4.534,10.126,10.126S378.531,114.697,372.938,114.697z"/>
	</g>
	<g clip-path="url(#SVGID_2_)">
		<path fill="#af231c" d="M372.938,203.584H105.154c-5.593,0-10.126-4.534-10.126-10.126s4.534-10.126,10.126-10.126h267.784
			c5.593,0,10.126,4.534,10.126,10.126S378.531,203.584,372.938,203.584z"/>
	</g>
	<g clip-path="url(#SVGID_2_)">
		<path fill="#af231c" d="M249.735,293.03H105.154c-5.593,0-10.126-4.533-10.126-10.126s4.534-10.126,10.126-10.126h144.581
			c5.593,0,10.126,4.533,10.126,10.126S255.328,293.03,249.735,293.03z"/>
	</g>
</g>
</svg>
