<?xml version="1.0" encoding="iso-8859-1"?>
<!-- Generator: Adobe Illustrator 19.0.0, SVG Export Plug-In . SVG Version: 6.00 Build 0)  -->
<svg version="1.1" id="Capa_1" xmlns="http://www.w3.org/2000/svg" xmlns:xlink="http://www.w3.org/1999/xlink" x="0px" y="0px"
	 viewBox="0 0 478.792 478.792" style="enable-background:new 0 0 478.792 478.792;" xml:space="preserve">
<g>
	<g>
		<path d="M283.285,283.386h-87.6c-5.5,0-10,4.5-10,10s4.5,10,10,10h87.6c5.5,0,10-4.5,10-10S288.785,283.386,283.285,283.386z" fill="#ffffff"/>
	</g>
</g>
<g>
	<g>
		<path d="M324.985,324.386h-171c-5.5,0-10,4.5-10,10s4.5,10,10,10h171c5.5,0,10-4.5,10-10S330.485,324.386,324.985,324.386z" fill="#ffffff"/>
	</g>
</g>
<g>
	<g>
		<path d="M324.985,366.386h-171c-5.5,0-10,4.5-10,10s4.5,10,10,10h171c5.5,0,10-4.5,10-10S330.485,366.386,324.985,366.386z" fill="#ffffff"/>
	</g>
</g>
<g>
	<g>
		<path d="M269.385,125.386h-8.4c-0.6-2-1.3-4.1-2.2-6h10.5c5.5,0,10-4.5,10-10s-4.5-10-10-10h-59.5c-5.5,0-10,4.5-10,10
			s4.5,10,10,10h17c4.8,0,9.1,3,11.9,6h-29c-5.5,0-10,4.5-10,10s4.5,10,10,10h28.9c-0.2,0-0.5,0.9-0.9,1.2c-2.9,3-6.8,4.7-11,4.8
			h-17c-5.4-0.1-9.9,4.1-10,9.5c-0.1,2.8,1.1,5.5,3.1,7.4l42.7,40.2c4,3.8,10.4,3.6,14.2-0.4c3.8-4,3.6-10.4-0.4-14.2l-25.1-23.7
			c6.7-1.4,12.9-4.8,17.8-9.6c4.3-4.2,7.4-9.4,9-15.2h8.4c5.5,0,10-4.5,10-10S274.885,125.386,269.385,125.386z" fill="#ffffff"/>
	</g>
</g>
<g>
	<g>
		<path d="M386.285,0.686c-3.8-1.5-8.1-0.5-10.9,2.6l-21.3,23.3l-21.3-23.2c-3.7-4.1-10-4.3-14.1-0.6c-0.2,0.2-0.4,0.4-0.6,0.6
			l-21.3,23.2l-21.3-23.3c-3.7-4.1-10.1-4.3-14.1-0.6c-0.2,0.2-0.4,0.4-0.6,0.6l-21.3,23.2l-21.3-23.2c-3.7-4.1-10.1-4.3-14.1-0.6
			c-0.2,0.2-0.4,0.4-0.6,0.6l-21.3,23.2l-21.3-23.2c-3.7-4.1-10.1-4.3-14.1-0.6c-0.2,0.2-0.4,0.4-0.6,0.6l-21.3,23.2l-21.4-23.2
			c-2.7-3-7-4.1-10.8-2.6s-6.3,5.2-6.2,9.3v458.8c-0.1,5.4,4.2,9.9,9.6,10c2.9,0.1,5.6-1.1,7.5-3.3l21.3-23.3l21.3,23.2
			c3.7,4.1,10,4.3,14.1,0.6c0.2-0.2,0.4-0.4,0.6-0.6l21.3-23.2l21.3,23.2c3.7,4.1,10.1,4.3,14.1,0.6c0.2-0.2,0.4-0.4,0.6-0.6
			l21.3-23.2l21.3,23.2c3.7,4.1,10.1,4.3,14.1,0.6c0.2-0.2,0.4-0.4,0.6-0.6l21.3-23.2l21.3,23.2c3.7,4.1,10.1,4.3,14.1,0.6
			c0.2-0.2,0.4-0.4,0.6-0.6l21.3-23.2l21.2,23.2c1.9,2.1,4.6,3.2,7.4,3.2c1.2,0,2.3-0.2,3.4-0.7c3.8-1.5,6.3-5.2,6.2-9.3V9.786
			C392.585,5.886,390.085,2.186,386.285,0.686z M354.185,427.386c-2.8,0-5.5,1.2-7.4,3.3l-21.3,23.3l-21.3-23.2
			c-3.7-4.1-10.1-4.3-14.1-0.6c-0.2,0.2-0.4,0.4-0.6,0.6l-21.3,23.2l-21.3-23.2c-3.7-4.1-10.1-4.3-14.1-0.6
			c-0.2,0.2-0.4,0.4-0.6,0.6l-21.3,23.2l-21.3-23.2c-3.7-4.1-10.1-4.3-14.1-0.6c-0.2,0.2-0.4,0.4-0.6,0.6l-21.3,23.2l-21.3-23.3
			c-1.9-2.1-4.6-3.3-7.4-3.3s-5.4,1.2-7.2,3.3l-11.2,12.4v-407.4l11.1,12.3c1.8,2.1,4.4,3.3,7.2,3.3c2.8,0,5.5-1.2,7.4-3.3
			l21.3-23.3l21.3,23.2c3.7,4.1,10.1,4.3,14.1,0.6c0.2-0.2,0.4-0.4,0.6-0.6l21.3-23.2l21.3,23.2c3.7,4.1,10.1,4.3,14.1,0.6
			c0.2-0.2,0.4-0.4,0.6-0.6l21.3-23.2l21.3,23.2c3.7,4.1,10.1,4.3,14.1,0.6c0.2-0.2,0.4-0.4,0.6-0.6l21.3-23.2l21.3,23.3
			c1.9,2.1,4.6,3.3,7.4,3.3c2.8,0,5.4-1.2,7.2-3.3l11.2-12.4v407.4l-11.1-12.3C359.585,428.586,356.985,427.386,354.185,427.386z" fill="#ffffff"/>
	</g>
</g>
<g>
</g>
<g>
</g>
<g>
</g>
<g>
</g>
<g>
</g>
<g>
</g>
<g>
</g>
<g>
</g>
<g>
</g>
<g>
</g>
<g>
</g>
<g>
</g>
<g>
</g>
<g>
</g>
<g>
</g>
</svg>
