<svg id="Layer_1" data-name="Layer 1" xmlns="http://www.w3.org/2000/svg" viewBox="0 0 64 68"><defs><style>.cls-1{fill:#d1302e;}</style></defs><path class="cls-1" d="M44.94,30a8,8,0,0,1-14,0,7.78,7.78,0,0,1-7,4.15,7.8,7.8,0,0,1-7-4.13c-.08.11-.15.19-.2.27a8,8,0,0,1-14.48-1.9A10.74,10.74,0,0,1,1.86,26c-.05-1.9,0-3.8,0-5.7A1.75,1.75,0,0,1,2,19.71Q5.06,12.59,8.14,5.46a1.18,1.18,0,0,1,1.22-.8H52.45a1.18,1.18,0,0,1,1.22.81q3,6.94,6,13.89l.18.48a.83.83,0,0,1-.73,1.2c-1.25,0-2.5.07-3.75.07H9.3c-.67,0-1.07-.28-1.12-.81A.92.92,0,0,1,9,19.23a2.91,2.91,0,0,1,.42,0H57.53a2.67,2.67,0,0,0-.09-.29q-2.59-6-5.18-12a.52.52,0,0,0-.55-.37q-20.8,0-41.61,0a.52.52,0,0,0-.55.37L3.88,20.05a1.68,1.68,0,0,0-.13.62c0,1.95,0,3.89,0,5.83A6.07,6.07,0,0,0,15.62,28a13.56,13.56,0,0,0,.3-1.91.93.93,0,0,1,.71-.83.89.89,0,0,1,1,.44,1.94,1.94,0,0,1,.16.72,6.08,6.08,0,0,0,6.72,5.83,5.84,5.84,0,0,0,5-3.92A11.87,11.87,0,0,0,30,26.46a4.77,4.77,0,0,1,.1-.66.93.93,0,0,1,1-.56.9.9,0,0,1,.8.81,7.67,7.67,0,0,0,.43,2.28,6,6,0,0,0,4.18,3.73,6.07,6.07,0,0,0,7.41-4.47A11.08,11.08,0,0,0,44,26.18a.94.94,0,0,1,1.39-.82.93.93,0,0,1,.5.88,5.73,5.73,0,0,0,1,3.26,5.92,5.92,0,0,0,5.94,2.68,6,6,0,0,0,5.09-4.74,7.88,7.88,0,0,0,.13-1.19,1,1,0,1,1,1.9,0,8,8,0,0,1-14.83,3.95A2.37,2.37,0,0,0,44.94,30Z"/><path class="cls-1" d="M30.89,62.79H9.74a4.83,4.83,0,0,1-4.88-3.94,5.28,5.28,0,0,1-.08-1.13q0-10,0-20a2.2,2.2,0,0,1,.06-.58.9.9,0,0,1,.93-.61.87.87,0,0,1,.84.68,3.14,3.14,0,0,1,.05.61q0,9.9,0,19.79A3.17,3.17,0,0,0,7.44,60a2.81,2.81,0,0,0,2.1.93h10.3c.36,0,.31-.2.31-.42V44.75a5,5,0,0,1,.63-2.61A4.7,4.7,0,0,1,25,39.7q5.91,0,11.82,0a4.77,4.77,0,0,1,4.72,3.77,5.35,5.35,0,0,1,.12,1.13V56.83c0,.69-.38,1.1-1,1.09a.92.92,0,0,1-.91-.88V44.74a3,3,0,0,0-3.19-3.17H25.1a3,3,0,0,0-3,2.42,3.08,3.08,0,0,0,0,.61V60.5c0,.3.08.4.39.4h7.1c.44,0,.45,0,.45-.44V46a3.76,3.76,0,0,1,0-.58.92.92,0,0,1,1.81,0,3.91,3.91,0,0,1,0,.49V60.39c0,.5,0,.5.48.5H52.11a2.81,2.81,0,0,0,2.81-1.84,3.59,3.59,0,0,0,.22-1.39c0-6.61,0-13.23,0-19.84a2.24,2.24,0,0,1,.05-.58.92.92,0,0,1,1.81.15c0,.12,0,.24,0,.36,0,6.67,0,13.34,0,20a4.83,4.83,0,0,1-3.24,4.73,5.8,5.8,0,0,1-1.8.29C45,62.8,37.92,62.79,30.89,62.79Z"/></svg>