<?xml version="1.0" encoding="utf-8"?>
<!-- Generator: Adobe Illustrator 16.0.0, SVG Export Plug-In . SVG Version: 6.00 Build 0)  -->
<!DOCTYPE svg PUBLIC "-//W3C//DTD SVG 1.1//EN" "http://www.w3.org/Graphics/SVG/1.1/DTD/svg11.dtd">
<svg version="1.1" id="Layer_1" xmlns="http://www.w3.org/2000/svg" xmlns:xlink="http://www.w3.org/1999/xlink" x="0px" y="0px"
	 width="512px" height="512px" viewBox="0 0 512 512" enable-background="new 0 0 512 512" xml:space="preserve">
<g>
	<path fill="#FFFFFF" d="M263,98.68c10.992,1.689,22.145,2.69,32.953,5.181c67.996,15.664,120.893,74.782,129.188,143.906
		c10.635,88.599-45.189,168.405-132.096,188.444c-9.836,2.266-20.021,3.016-30.045,4.469c-4.668,0-9.333,0-14,0
		c-1.792-0.299-3.574-0.76-5.376-0.871c-16.578-1.021-32.64-4.551-48.056-10.604C114.381,397.324,69.693,314.867,90.38,230.182
		c16.329-66.848,60.042-108.872,126.668-126.421c10.376-2.733,21.287-3.438,31.952-5.081C253.667,98.68,258.332,98.68,263,98.68z
		 M255.859,120.443c-82.422,0.142-148.984,66.716-149.088,149.12c-0.104,82.48,66.912,149.49,149.365,149.354
		c82.414-0.141,148.994-66.738,149.087-149.131C405.318,187.269,338.344,120.302,255.859,120.443z"/>
	<path fill="#FFFFFF" d="M76,98.68c7.109,2.249,9.418,7.184,9.357,14.47c-0.248,29.797-0.088,59.598-0.108,89.397
		c-0.015,21.755-9.036,35.011-29.194,43.571c-1.365,0.58-2.656,3.138-2.679,4.793c-0.205,15.146-0.121,30.298-0.121,45.446
		c0,43.285-0.104,86.566,0.103,129.854c0.035,7.283-2.252,12.217-9.356,14.469c-1,0-2,0-3,0c-6.879-2.541-9.133-7.482-9.108-14.729
		C32.086,368.283,32,310.619,32,252.955c0-1.98,0-3.961,0-6c-12.65-3.907-22.177-11.282-27.794-23.081
		C2.369,220.015,1.378,215.756,0,211.68c0-35,0-70,0-105c3-2.667,6-5.333,9-8c1,0,2,0,3,0c7.105,2.25,9.416,7.178,9.354,14.466
		c-0.252,29.625-0.123,59.254-0.072,88.881c0.005,2.812,0.133,5.696,0.763,8.418c1.271,5.487,4.3,9.792,9.956,12.881
		c0-2.482,0-4.282,0-6.081c0-34.622,0.137-69.243-0.111-103.862c-0.053-7.245,2.228-12.18,9.111-14.703c1,0,2,0,3,0
		c7.102,2.249,9.402,7.172,9.354,14.458c-0.231,34.772-0.106,69.547-0.094,104.32c0,1.74,0.143,3.48,0.26,6.131
		c7.403-5.098,10.513-11.314,10.5-19.37c-0.051-30.281,0.135-60.563-0.131-90.844c-0.064-7.243,2.23-12.174,9.111-14.695
		C74,98.68,75,98.68,76,98.68z"/>
	<path fill="#FFFFFF" d="M500,440.68c-7.076-2.271-9.396-7.176-9.355-14.477c0.227-39.297,0.105-78.596,0.105-117.896
		c0-1.969,0-3.938,0-6.633c-3.793,0-7.219,0.045-10.645-0.008c-18.047-0.283-32.002-14.051-32.063-32.077
		c-0.127-39.132-0.189-78.266,0.016-117.396c0.143-27.161,19.709-48.998,46.584-52.671c1.139-0.156,2.236-0.556,3.355-0.842
		c1.666,0,3.334,0,5,0c3,2.667,6,5.333,9,8c0,108.667,0,217.332,0,326c-3,2.668-6,5.332-9,8C502,440.68,501,440.68,500,440.68z
		 M490.588,122.456c-1.434,0.498-2.225,0.676-2.924,1.03c-12.582,6.371-18.389,16.843-18.402,30.715
		c-0.033,32.978-0.012,65.955-0.012,98.932c0,5.163-0.035,10.326,0.021,15.49c0.051,4.896,1.832,9.337,6.654,10.654
		c4.605,1.26,9.637,0.971,14.66,1.377C490.588,227.375,490.588,175.275,490.588,122.456z"/>
	<path fill="#FFFFFF" d="M512,106.68c-3-2.667-6-5.333-9-8c3,0,6,0,9,0C512,101.346,512,104.013,512,106.68z"/>
	<path fill="#FFFFFF" d="M503,440.68c3-2.668,6-5.332,9-8c0,2.668,0,5.332,0,8C509,440.68,506,440.68,503,440.68z"/>
	<path fill="#FFFFFF" d="M128.016,265.586c0,1.166-0.029,2.331,0.004,3.497c0.186,6.451,4.436,11.067,10.347,11.257
		c5.856,0.188,10.368-4.246,10.852-10.688c0.087-1.159,0.095-2.327,0.147-3.492c1.229-26.639,10.613-49.938,28.955-69.371
		c20.816-22.053,46.64-32.987,76.867-33.878c6.959-0.205,11.478-4.558,11.474-10.58c-0.004-6.245-4.888-10.847-11.968-10.553
		c-6.967,0.289-13.965,0.837-20.844,1.932C175.299,153.027,129.148,206.278,128.016,265.586z M383.984,273.784
		c0-1.166,0.025-2.331-0.004-3.495c-0.182-6.457-4.41-11.061-10.334-11.266c-5.863-0.201-10.385,4.223-10.869,10.66
		c-0.088,1.161-0.104,2.327-0.154,3.492c-1.234,27.018-10.879,50.566-29.617,70.107c-20.719,21.607-46.338,32.279-76.181,33.162
		c-6.943,0.205-11.491,4.572-11.49,10.559c0.001,6.254,4.873,10.859,11.947,10.576c6.801-0.271,13.633-0.811,20.348-1.879
		C336.697,386.301,382.768,333.385,383.984,273.784z"/>
	<path fill="#FFFFFF" d="M128.016,265.586c1.133-59.308,47.284-112.559,105.832-121.875c6.879-1.095,13.879-1.643,20.844-1.932
		c7.082-0.294,11.965,4.308,11.969,10.553c0.004,6.022-4.514,10.375-11.475,10.58c-30.227,0.892-56.049,11.825-76.865,33.878
		c-18.344,19.433-27.727,42.732-28.956,69.371c-0.054,1.165-0.062,2.333-0.147,3.493c-0.482,6.44-4.994,10.875-10.852,10.687
		c-5.911-0.188-10.162-4.806-10.348-11.257C127.986,267.917,128.016,266.751,128.016,265.586z"/>
	<path fill="#FFFFFF" d="M383.984,273.784c-1.219,59.601-47.287,112.517-106.355,121.917c-6.715,1.068-13.547,1.607-20.348,1.879
		c-7.074,0.283-11.945-4.322-11.947-10.576c-0.001-5.986,4.547-10.354,11.49-10.559c29.843-0.883,55.462-11.555,76.181-33.162
		c18.738-19.541,28.383-43.09,29.617-70.107c0.053-1.164,0.065-2.33,0.154-3.492c0.484-6.438,5.006-10.861,10.868-10.66
		c5.925,0.205,10.153,4.809,10.334,11.266C384.012,271.453,383.984,272.618,383.984,273.784z"/>
</g>
</svg>
