<?xml version="1.0" encoding="utf-8"?>
<!-- Generator: Adobe Illustrator 16.0.0, SVG Export Plug-In . SVG Version: 6.00 Build 0)  -->
<!DOCTYPE svg PUBLIC "-//W3C//DTD SVG 1.1//EN" "http://www.w3.org/Graphics/SVG/1.1/DTD/svg11.dtd">
<svg version="1.1" id="Layer_1" xmlns="http://www.w3.org/2000/svg" xmlns:xlink="http://www.w3.org/1999/xlink" x="0px" y="0px"
	 width="512px" height="512px" viewBox="0 0 512 512" enable-background="new 0 0 512 512" xml:space="preserve">
<g>
	<path fill="#ebebeb" d="M164.726,64.482c116,0,232,0,348,0c0,95.333,0,190.667,0,286c-0.264-0.592-0.701-1.168-0.765-1.779
		c-4.13-40.592-37.822-81.629-89.978-85.948c-2.912-0.241-3.835-1.296-4.438-4.039c-7.107-32.508-14.374-64.981-21.564-97.471
		c-0.271-1.224-0.198-2.523-0.225-2.907c5.639-3.187,10.643-6.016,16.084-9.092c10.988,6.117,23.653,3.936,36.021,3.623
		c5.352-0.136,8.729-4.329,8.793-9.768c0.151-13.329,0.171-26.663-0.004-39.991c-0.077-5.862-3.971-9.578-9.825-9.81
		c-4.658-0.184-9.331,0.002-13.995-0.082c-7.032-0.125-13.97-0.031-20.456,3.417c-0.954,0.509-3.081-0.155-4.104-0.976
		c-5.301-4.253-11.234-6.234-18.02-6.205c-18.83,0.083-37.66,0.011-56.49,0.037c-10.183,0.015-17.816,4.428-23.11,13.188
		c-0.811,1.34-2.895,2.599-4.448,2.677c-6.15,0.306-12.324,0.105-18.491,0.131c-16.287,0.065-28.042,11.076-27.971,26.17
		c0.071,14.865,11.813,25.791,27.802,25.82c14.331,0.025,28.661,0.005,42.992,0.005c2.106,0,4.214,0,6.645,0
		c0,6.504-0.18,12.334,0.083,18.144c0.117,2.573,0.595,5.419,1.861,7.584c2.237,3.826,6.162,5.133,10.416,4.065
		c4.454-1.118,7.293-4.184,7.44-8.903c0.212-6.791,0.055-13.591,0.055-20.635c6.262,0,11.854,0,17.479,0
		c0.377,1.23,0.795,2.326,1.045,3.458c7.782,35.255,15.604,70.502,23.19,105.799c0.522,2.433-0.045,5.626-1.261,7.824
		c-14.432,26.066-29.204,51.943-43.619,78.019c-6.616,11.967-16.292,17.767-30.008,17.703c-36.826-0.172-73.653-0.06-110.479-0.06
		c-1.753,0-3.507,0-5.117,0c-7.033-41.482-36.748-70.143-76.273-73.726c-18.444-1.672-35.785,2.416-51.525,12.358
		c-22.59,14.271-35.396,34.994-39.309,60.973c-7.097,0-13.673,0-20.797,0c0.792-6.723,1.337-13.021,2.297-19.257
		c9.326-60.666,64.165-108.976,125.506-110.192c24.819-0.493,49.657-0.248,74.482,0c3.008,0.029,6.937,1.391,8.739,3.552
		c1.972,2.366,2.696,6.372,2.719,9.672c0.199,27.993,0.086,55.989,0.133,83.983c0.016,9.225,3.509,12.624,12.742,12.629
		c17.33,0.012,34.666,0.202,51.99-0.078c27.717-0.445,52.489-20.634,56.536-48.006c2.245-15.185,1.283-30.886,1.079-46.344
		c-0.033-2.536-3.111-5.994-5.669-7.347c-6.725-3.555-13.654,1.753-13.812,10.298c-0.207,11.162,0.118,22.337-0.229,33.49
		c-0.578,18.48-13.701,34.011-31.914,36.984c-7.976,1.305-16.256,0.844-24.399,0.978c-8.619,0.141-17.244,0.03-26.33,0.03
		c0-2.529,0-4.498,0-6.467c0-21.662,0.163-43.326-0.089-64.986c-0.087-7.528-1.202-15.045-1.847-22.567
		c-0.869-0.188-0.702-0.496-0.45-0.694c12.468-9.854,16.683-21.951,12.183-35.002c-4.543-13.171-15.606-20.275-31.605-20.28
		c-14.233-0.005-28.466-0.001-43.199-0.001c0-3.411,0-7.377,0-11.344c-0.001-24.329,0.094-48.658-0.039-72.986
		c-0.087-15.824-7.971-26.246-22.763-30.759C165.82,65.209,165.29,64.791,164.726,64.482z M357.052,217.481
		c-0.079-5.488-4.474-9.861-9.896-9.847c-5.367,0.014-9.828,4.482-9.887,9.902c-0.06,5.666,4.495,10.135,10.194,9.999
		C352.971,227.403,357.133,223.039,357.052,217.481z"/>
	<path fill="#A1A1A1" d="M164.726,64.482c0.564,0.309,1.095,0.728,1.697,0.911c14.792,4.513,22.675,14.935,22.763,30.759
		c0.133,24.328,0.038,48.658,0.039,72.986c0,3.967,0,7.933,0,11.344c14.732,0,28.965-0.004,43.199,0.001
		c16,0.005,27.063,7.109,31.605,20.28c4.501,13.051,0.285,25.148-12.182,35.002c-0.252,0.199-0.419,0.506,0.45,0.694
		c0.645,7.522,1.759,15.04,1.847,22.568c0.252,21.658,0.089,43.324,0.089,64.986c0,1.969,0,3.937,0,6.467
		c9.085,0,17.71,0.108,26.33-0.031c8.145-0.133,16.426,0.326,24.399-0.977c18.213-2.976,31.336-18.505,31.914-36.984
		c0.349-11.154,0.022-22.329,0.229-33.491c0.156-8.545,7.087-13.853,13.812-10.298c2.558,1.353,5.636,4.811,5.669,7.347
		c0.204,15.458,1.166,31.159-1.079,46.343c-4.047,27.373-28.819,47.562-56.536,48.008c-17.324,0.279-34.66,0.088-51.99,0.078
		c-9.233-0.006-12.727-3.406-12.742-12.63c-0.047-27.993,0.066-55.989-0.133-83.983c-0.023-3.3-0.747-7.306-2.719-9.672
		c-1.802-2.161-5.73-3.522-8.739-3.552c-24.826-0.248-49.664-0.493-74.482,0C86.824,241.855,31.985,290.164,22.66,350.83
		c-0.959,6.234-1.505,12.534-2.297,19.257c7.124,0,13.7,0,20.797,0c3.913-25.979,16.719-46.702,39.309-60.973
		c15.741-9.942,33.081-14.03,51.525-12.358c39.525,3.583,69.24,32.242,76.273,73.727c1.61,0,3.363,0,5.117,0
		c36.826,0,73.653-0.113,110.479,0.059c13.716,0.063,23.392-5.736,30.008-17.703c14.415-26.074,29.188-51.951,43.619-78.02
		c1.216-2.197,1.784-5.392,1.261-7.823c-7.587-35.297-15.408-70.544-23.19-105.799c-0.25-1.132-0.668-2.228-1.045-3.458
		c-5.626,0-11.218,0-17.479,0c0,7.044,0.157,13.845-0.055,20.635c-0.147,4.719-2.986,7.785-7.44,8.903
		c-4.254,1.067-8.179-0.24-10.416-4.065c-1.268-2.165-1.744-5.012-1.861-7.584c-0.263-5.81-0.083-11.64-0.083-18.144
		c-2.431,0-4.537,0-6.645,0c-14.331,0-28.661,0.02-42.992-0.005c-15.986-0.029-27.729-10.955-27.802-25.82
		c-0.071-15.094,11.684-26.104,27.971-26.17c6.167-0.025,12.341,0.175,18.491-0.131c1.555-0.078,3.639-1.337,4.448-2.677
		c5.294-8.76,12.929-13.173,23.11-13.188c18.83-0.026,37.66,0.046,56.49-0.037c6.784-0.029,12.719,1.952,18.02,6.205
		c1.021,0.821,3.148,1.485,4.104,0.976c6.486-3.448,13.424-3.542,20.456-3.417c4.664,0.084,9.337-0.102,13.995,0.082
		c5.854,0.231,9.748,3.948,9.825,9.81c0.175,13.328,0.155,26.662,0.004,39.991c-0.063,5.438-3.441,9.632-8.793,9.768
		c-12.366,0.313-25.031,2.494-36.021-3.623c-5.441,3.077-10.444,5.905-16.084,9.092c0.025,0.383-0.047,1.683,0.225,2.907
		c7.19,32.49,14.457,64.962,21.564,97.471c0.603,2.743,1.524,3.799,4.438,4.039c52.154,4.319,85.848,45.357,89.978,85.948
		c0.063,0.612,0.501,1.188,0.765,1.778c0,4.334,0,8.668,0,13c-2.989,5.318-7.434,7.578-13.584,7.031
		c-4.027-0.356-8.111-0.066-12.575-0.066c0.55,1.816,0.864,2.908,1.21,3.99c8.526,26.758-2.519,55.387-27.144,68.625
		c-6.438,3.463-13.909,4.999-20.907,7.421c-61,0-122,0-183,0c-4.183-2.174-7.471-4.957-7.336-10.253
		c0.155-6.146,4.466-9.769,11.94-9.771c40.462-0.021,80.923-0.008,121.385-0.021c1.73,0,3.463-0.144,5.807-0.245
		c-14.188-18.415-17.35-38.029-9.224-60.784c-5.557,1.162-11.62,0.572-14.189,3.289c-11.382,12.027-24.776,17.891-41.246,17.838
		c-44.956-0.148-89.915-0.051-134.871-0.051c-1.956,0-3.911,0-6.121,0c-0.07,1.438-0.111,2.396-0.163,3.354
		c-1.171,21.795-11.018,38.54-30.041,49.176c-6.378,3.566-13.926,5.038-20.939,7.469c-43.667,0-87.334,0-131,0c0-4.332,0-8.667,0-13
		c2.875-5.481,7.382-7.229,13.522-7.144c20.278,0.284,40.561,0.108,60.843,0.106c1.574,0,3.147,0,5.81,0
		c-9.936-12.118-14.249-25.228-14.335-39.964c-17.737,0-35.008-0.2-52.269,0.106c-6.141,0.108-10.621-1.728-13.572-7.106
		c0-7.334,0-14.668,0-22c0.295-1.43,0.713-2.848,0.866-4.291c3.244-30.672,14.745-57.864,34.436-81.571
		c3.805-4.581,7.938-8.89,12.612-14.093c-2.421-2.063-4.792-3.901-6.955-5.958c-7.622-7.244-14.213-15.313-25.009-18.981
		c-9.223-3.134-13.305-12.018-15.95-21.106c0-22,0-44,0-66c0.278-1.101,0.658-2.186,0.82-3.304
		c5.69-39.308,33.347-69.912,71.622-79.184c3.83-0.928,7.703-1.679,11.556-2.512C111.392,64.482,138.06,64.482,164.726,64.482z
		 M24.292,136.559c2.387,0,4.175,0,5.964,0c32.15,0,64.3-0.016,96.449,0.033c2.299,0.004,4.712,0.114,6.87,0.806
		c4.637,1.486,6.984,5.686,6.374,10.589c-0.556,4.47-3.963,7.915-8.528,8.457c-1.646,0.194-3.327,0.112-4.992,0.112
		c-33.315,0.005-66.631,0.004-99.947,0.004c-1.775,0-3.549,0-5.525,0c-0.097,1.894-0.22,3.192-0.222,4.492
		c-0.013,15.825-0.036,31.65,0.003,47.475c0.021,8.242,3.68,11.938,11.887,11.942c41.645,0.027,83.29,0.029,124.935-0.002
		c7.695-0.006,11.574-3.579,11.594-11.205c0.099-37.813,0.096-75.627,0.006-113.44c-0.018-7.701-3.83-11.306-11.479-11.321
		c-21.322-0.043-42.649-0.254-63.966,0.072c-22.179,0.34-40.641,9.221-55.207,25.919C32.025,117.923,27.14,126.333,24.292,136.559z
		 M491.774,350.24c-0.07-1.414-0.036-2.252-0.164-3.063c-5.429-34.524-36.869-62.825-71.604-64.635
		c-2.985-0.155-4.408,0.948-5.77,3.396c-11.239,20.217-22.604,40.36-33.909,60.541c-0.611,1.092-1.031,2.295-1.68,3.761
		C416.548,350.24,453.96,350.24,491.774,350.24z M187.566,370.271c-2.886-25.604-27.464-54.697-64.686-53.754
		c-35.812,0.906-58.766,30.039-60.929,53.754C103.7,370.271,145.429,370.271,187.566,370.271z M432.847,370.447
		c-8.991,0-17.988,0.164-26.977-0.086c-3.355-0.094-5.063,1.172-6.576,3.992c-8.584,15.983-4.708,35.981,9.363,47.452
		c14.166,11.548,34.489,11.479,48.326-0.166c14.063-11.834,17.762-31.6,9.046-47.516c-1.444-2.642-3.068-3.83-6.208-3.755
		C450.834,370.587,441.838,370.447,432.847,370.447z M86.903,390.75c-0.787,22.235,16.792,40.093,38.667,39.688
		c21.13-0.393,38.507-18.989,36.809-39.688C137.365,390.75,112.327,390.75,86.903,390.75z M361.75,137.48
		c9.497,0,18.995-0.049,28.492,0.022c4.327,0.032,6.527-1.861,6.49-6.274c-0.045-5.166-0.039-10.332-0.002-15.496
		c0.031-4.082-1.869-6.241-6.016-6.243c-18.994-0.006-37.99-0.008-56.984,0.002c-4.153,0.002-6.027,2.201-5.993,6.267
		c0.036,4.499-0.004,8.998,0.008,13.497c0.017,7.022,1.166,8.211,8.013,8.223C344.421,137.493,353.086,137.482,361.75,137.48z
		 M217.52,220.48c5.666,0,11.333,0.061,16.998-0.016c6.739-0.091,11.265-4.265,11.165-10.151c-0.097-5.706-4.505-9.755-10.999-9.804
		c-11.498-0.086-22.997-0.089-34.495,0.002c-6.542,0.051-10.798,4.06-10.841,9.887c-0.043,5.865,4.186,9.936,10.676,10.057
		C205.854,220.563,211.688,220.478,217.52,220.48z M436.498,113.233c-2.877,0-5.195-0.007-7.513,0.003
		c-0.996,0.004-1.996-0.011-2.987,0.079c-5.041,0.457-8.724,4.02-9.204,8.864c-0.491,4.951,2.715,9.709,7.854,10.493
		c3.818,0.583,7.801,0.115,11.851,0.115C436.498,126.308,436.498,120.064,436.498,113.233z M307.622,125.513
		c-7.687,0-14.792-0.131-21.892,0.054c-3.646,0.095-5.92,2.298-5.894,6.021c0.027,3.46,2.167,5.69,5.589,5.787
		c7.398,0.209,14.807,0.064,22.195,0.064C307.622,133.284,307.622,129.693,307.622,125.513z M56.133,240.73
		c2.728,3.101,5.215,5.928,7.65,8.695c4.404-2.918,8.319-5.513,13.124-8.695C69.29,240.73,62.801,240.73,56.133,240.73z"/>
	<path fill="#ebebeb" d="M131.726,450.48c7.013-2.43,14.561-3.9,20.939-7.468c19.022-10.636,28.869-27.381,30.041-49.176
		c0.052-0.958,0.093-1.918,0.163-3.354c2.21,0,4.165,0,6.121,0c44.957,0,89.915-0.099,134.871,0.051
		c16.47,0.053,29.864-5.811,41.246-17.838c2.569-2.717,8.634-2.127,14.189-3.289c-8.126,22.755-4.965,42.369,9.223,60.783
		c-2.343,0.104-4.074,0.246-5.806,0.246c-40.462,0.014-80.923,0-121.385,0.021c-7.475,0.004-11.786,3.627-11.94,9.771
		c-0.134,5.296,3.155,8.079,7.337,10.252c-11.667,0-23.333,0-35,0c0.988-0.586,2.014-1.118,2.959-1.768
		c4.229-2.904,5.648-8.239,3.424-12.73c-2.239-4.52-7.526-6.62-12.228-4.861c-4.83,1.81-7.93,6.715-6.017,11.521
		c1.21,3.042,4.502,5.255,6.861,7.839C188.393,450.48,160.059,450.48,131.726,450.48z"/>
	<path fill="#ebebeb" d="M0.726,383.48c2.951,5.381,7.431,7.218,13.572,7.107c17.261-0.309,34.532-0.105,52.269-0.105
		c0.086,14.735,4.399,27.845,14.335,39.963c-2.663,0-4.236,0-5.81,0c-20.282,0.002-40.565,0.178-60.843-0.106
		c-6.14-0.085-10.648,1.661-13.522,7.144C0.726,419.482,0.726,401.482,0.726,383.48z"/>
	<path fill="#ebebeb" d="M0.726,215.482c2.645,9.088,6.727,17.972,15.95,21.106c10.796,3.668,17.388,11.737,25.009,18.981
		c2.163,2.056,4.533,3.894,6.955,5.958c-4.674,5.203-8.807,9.512-12.612,14.093c-19.69,23.707-31.191,50.899-34.436,81.571
		c-0.153,1.443-0.571,2.861-0.866,4.291C0.726,312.814,0.726,264.148,0.726,215.482z"/>
	<path fill="#ebebeb" d="M439.727,450.48c6.998-2.421,14.471-3.957,20.907-7.42c24.625-13.238,35.67-41.867,27.144-68.625
		c-0.346-1.082-0.66-2.174-1.21-3.99c4.464,0,8.548-0.291,12.575,0.066c6.15,0.547,10.595-1.713,13.584-7.031c0,29,0,58.002,0,87
		C488.393,450.48,464.059,450.48,439.727,450.48z"/>
	<path fill="#ebebeb" d="M84.726,64.482C80.873,65.315,77,66.066,73.17,66.994C34.895,76.266,7.238,106.87,1.546,146.178
		c-0.162,1.118-0.542,2.203-0.82,3.304c0-28.333,0-56.667,0-85C28.726,64.482,56.726,64.482,84.726,64.482z"/>
	<path fill="#A1A1A1" d="M216.726,450.48c-2.358-2.584-5.65-4.797-6.861-7.839c-1.913-4.807,1.187-9.712,6.017-11.521
		c4.701-1.759,9.989,0.343,12.228,4.861c2.224,4.491,0.805,9.826-3.424,12.73c-0.945,0.648-1.971,1.182-2.959,1.768
		C220.06,450.48,218.393,450.48,216.726,450.48z"/>
	<path fill="#A1A1A1" d="M357.052,217.481c0.081,5.558-4.081,9.922-9.587,10.054c-5.699,0.136-10.254-4.333-10.195-9.999
		c0.06-5.42,4.521-9.889,9.888-9.902C352.578,207.62,356.973,211.993,357.052,217.481z"/>
	<path fill="#ebebeb" d="M24.292,136.559c2.848-10.225,7.733-18.635,14.216-26.067c14.566-16.698,33.027-25.58,55.207-25.919
		c21.317-0.327,42.644-0.116,63.966-0.072c7.648,0.016,11.46,3.62,11.479,11.321c0.09,37.813,0.093,75.627-0.006,113.44
		c-0.02,7.626-3.898,11.199-11.594,11.205c-41.646,0.031-83.291,0.029-124.935,0.002c-8.207-0.005-11.866-3.7-11.887-11.942
		c-0.039-15.825-0.017-31.65-0.003-47.475c0.002-1.3,0.125-2.599,0.222-4.492c1.976,0,3.75,0,5.525,0
		c33.316,0,66.632,0.001,99.947-0.004c1.666,0,3.347,0.083,4.992-0.112c4.565-0.542,7.972-3.986,8.528-8.457
		c0.61-4.903-1.737-9.103-6.374-10.589c-2.158-0.691-4.571-0.802-6.87-0.806c-32.149-0.049-64.299-0.033-96.449-0.033
		C28.467,136.559,26.679,136.559,24.292,136.559z"/>
	<path fill="#ebebeb" d="M491.774,350.24c-37.814,0-75.228,0-113.125,0c0.647-1.465,1.067-2.668,1.68-3.762
		c11.305-20.18,22.67-40.323,33.909-60.539c1.36-2.448,2.783-3.553,5.77-3.396c34.733,1.809,66.175,30.109,71.604,64.635
		C491.738,347.988,491.704,348.826,491.774,350.24z"/>
	<path fill="#ebebeb" d="M187.566,370.271c-42.137,0-83.867,0-125.615,0c2.163-23.715,25.117-52.848,60.929-53.754
		C160.102,315.574,184.681,344.668,187.566,370.271z"/>
	<path fill="#ebebeb" d="M432.847,370.447c8.991,0,17.987,0.14,26.976-0.077c3.14-0.075,4.764,1.112,6.208,3.755
		c8.716,15.916,5.018,35.682-9.046,47.516c-13.836,11.645-34.16,11.713-48.326,0.166c-14.071-11.471-17.947-31.469-9.363-47.453
		c1.516-2.819,3.221-4.086,6.576-3.992C414.857,370.611,423.854,370.447,432.847,370.447z"/>
	<path fill="#ebebeb" d="M86.903,390.75c25.424,0,50.461,0,75.476,0c1.698,20.697-15.679,39.295-36.809,39.688
		C103.695,430.843,86.117,412.985,86.903,390.75z"/>
	<path fill="#ebebeb" d="M361.75,137.48c-8.664,0.001-17.329,0.013-25.992-0.002c-6.847-0.012-7.996-1.201-8.013-8.223
		c-0.012-4.499,0.028-8.999-0.008-13.497c-0.034-4.066,1.84-6.265,5.993-6.267c18.994-0.01,37.99-0.008,56.984-0.002
		c4.146,0.002,6.047,2.162,6.016,6.243c-0.037,5.165-0.043,10.331,0.002,15.496c0.037,4.413-2.163,6.306-6.49,6.274
		C380.745,137.431,371.247,137.48,361.75,137.48z"/>
	<path fill="#ebebeb" d="M217.52,220.479c-5.832,0-11.666,0.085-17.497-0.023c-6.49-0.121-10.719-4.192-10.676-10.057
		c0.043-5.828,4.299-9.836,10.841-9.887c11.498-0.091,22.997-0.088,34.495-0.002c6.494,0.049,10.902,4.098,10.999,9.804
		c0.1,5.886-4.426,10.06-11.165,10.151C228.853,220.541,223.186,220.48,217.52,220.479z"/>
	<path fill="#ebebeb" d="M436.498,113.233c0,6.832,0,13.075,0,19.554c-4.05,0-8.031,0.468-11.852-0.115
		c-5.139-0.783-8.345-5.542-7.854-10.493c0.48-4.844,4.163-8.407,9.204-8.864c0.991-0.09,1.991-0.075,2.987-0.079
		C431.303,113.226,433.621,113.233,436.498,113.233z"/>
	<path fill="#ebebeb" d="M307.622,125.513c0,4.18,0,7.771,0,11.926c-7.39,0-14.797,0.145-22.195-0.064
		c-3.422-0.097-5.562-2.327-5.589-5.787c-0.027-3.723,2.246-5.925,5.895-6.021C292.83,125.382,299.938,125.513,307.622,125.513z"/>
	<path fill="#ebebeb" d="M56.133,240.73c6.668,0,13.157,0,20.774,0c-4.805,3.183-8.72,5.777-13.124,8.695
		C61.348,246.658,58.861,243.831,56.133,240.73z"/>
</g>
</svg>
