<svg id="Layer_1" data-name="Layer 1" xmlns="http://www.w3.org/2000/svg" viewBox="0 0 64 68"><defs><style>.cls-1{fill:#d1302e;}</style></defs><path class="cls-1" d="M41.24,38l.33,0c1,0,2.09,0,3.14,0,.3,0,.38-.1.38-.4,0-3.81,0-7.62,0-11.43A3,3,0,0,1,47,23.31,3.27,3.27,0,0,1,48.23,23c3.43,0,6.87,0,10.3,0a3.14,3.14,0,0,1,3.06,2.48,5.9,5.9,0,0,1,.13,1.11c0,3.27,0,6.54,0,9.8a3.25,3.25,0,0,1-3.33,3.33c-1.34,0-2.69,0-4,0-.26,0-.34.08-.34.34,0,.67,0,1.34,0,2a2.3,2.3,0,0,1-.86,1.9.31.31,0,0,0-.09.45,12.59,12.59,0,0,1,1.11,6.4c0,.7-.16,1.39-.23,2.09a2.4,2.4,0,0,0,0,.37c.1.73.24,1.46.29,2.19a1,1,0,0,1-1.1,1.15c-.21,0-.42,0-.63,0a.31.31,0,0,0-.38.3,7.5,7.5,0,0,1-14.74,0,.33.33,0,0,0-.4-.32H19.13c-.25,0-.38.08-.39.35a3.55,3.55,0,0,1-.12.65.87.87,0,0,1-.91.66,6.43,6.43,0,0,1-1.08-.2c-.24-.07-.35,0-.45.22a6.63,6.63,0,0,1-4.49,3.9,6.77,6.77,0,0,1-6.95-2.28,6.7,6.7,0,0,1-1.48-4.63c0-.2,0-.31-.26-.34s-.59-.16-.89-.21a1,1,0,0,1-.78-.64.58.58,0,0,1,0-.39,9.24,9.24,0,0,1,3-4.86,8.65,8.65,0,0,1,5.31-2c.5,0,.49,0,.63-.49.39-1.38.79-2.77,1.19-4.15a.87.87,0,0,1,1-.62.85.85,0,0,1,.6,1.08c-.42,1.47-.84,2.94-1.28,4.41a.68.68,0,0,0,.14.73q3.09,3.42,6.15,6.87a.7.7,0,0,0,.62.27c.29,0,.58,0,.87,0s.37,0,.25-.35c-.59-1.58-1.22-3.15-1.73-4.76A25.44,25.44,0,0,1,17,41a31.39,31.39,0,0,1,1.53-8.15c.1-.31.08-.35-.25-.35-.63,0-1.27,0-1.91,0a.36.36,0,0,0-.4.3c-.4,1.4-.8,2.81-1.21,4.21-.14.49-.28,1-.43,1.47s-.6.85-1.13.68A.87.87,0,0,1,12.66,38c.24-.84.49-1.68.73-2.52s.51-1.74.77-2.61c.07-.24,0-.36-.25-.35s-.44,0-.66,0a.88.88,0,0,1-.95-1c0-1.49,0-3,0-4.48,0-1.24.77-1.8,1.95-1.42l6.17,2a2,2,0,0,0,.74.09c1.57-.12,3.14-.24,4.71-.38a1,1,0,0,0,.5-.2c.61-.51,1.21-1,1.8-1.55a.75.75,0,0,0,.23-.45,14.54,14.54,0,0,1,.39-3.35c.08-.28-.12-.31-.3-.36a5.88,5.88,0,0,1-3.29-2.15A6,6,0,0,1,23.94,15c0-.47,0-.47-.42-.47-.73,0-1-.32-1-1a7.58,7.58,0,0,1,5.56-7.18A6.1,6.1,0,0,1,29.82,6a7.33,7.33,0,0,1,5.55,2.38,7.76,7.76,0,0,1,2,6.87,7.74,7.74,0,0,1-1.89,4c-.13.15-.12.24,0,.36a13.21,13.21,0,0,1,4.29,6,23.87,23.87,0,0,1,1.54,7.13c.09,1.24.11,2.5.12,3.75A12.67,12.67,0,0,1,41.24,38ZM20.94,52.59c.06.17.08.26.12.34.21.53.44,1,.64,1.57a.55.55,0,0,0,.62.41q6.21,0,12.43,0c.25,0,.36-.08.39-.33a9,9,0,0,1,.76-2.83A9.57,9.57,0,0,1,47,46.29a9.34,9.34,0,0,1,5.27,3.39,2.12,2.12,0,0,0,.26.25,1.42,1.42,0,0,0,0-.21,10.93,10.93,0,0,0-1.11-4.87.58.58,0,0,0-.6-.37c-2.53,0-5.06,0-7.58,0a2.74,2.74,0,0,1-.5,0,.82.82,0,0,1-.62-1.09c.14-.41.42-.57,1-.57h8.24a3.09,3.09,0,0,0,.43,0,.59.59,0,0,0,.55-.62c0-.72,0-1.44,0-2.16,0-.2-.08-.27-.28-.27H40.52a.51.51,0,0,0-.35.15A4.71,4.71,0,0,1,37,41.25c-1.33.08-2.67.08-4,.1-1,0-1,0-1.07,1,0,.4,0,.41.38.41H39a.84.84,0,0,1,.28,1.58,1.52,1.52,0,0,1-.6.1c-2.12,0-4.24,0-6.36,0-.43,0-.43,0-.43.45,0,1.94,0,3.88,0,5.82a4.11,4.11,0,0,1-.07.78,1,1,0,0,1-.66.84,4.23,4.23,0,0,1-1.22.22h-9ZM18.68,42a26.4,26.4,0,0,0,1.5,8.59c.07.2.16.3.38.29.42,0,.84,0,1.26,0,.23,0,.31-.1.33-.31a6.23,6.23,0,0,1,.17-.86,3.54,3.54,0,0,1,2.53-2.54.39.39,0,0,0,.35-.45c0-1.37,0-2.74,0-4.11a12.79,12.79,0,0,1,.43-3.53,6.15,6.15,0,0,1,4-4.4c.21-.07.24-.16.18-.37-.18-.64-.35-1.29-.51-1.93-.05-.23-.13-.25-.35-.15a2.63,2.63,0,0,1-.91.25c-2.4,0-4.8,0-7.2,0a.47.47,0,0,0-.54.41c-.15.57-.34,1.14-.51,1.71A27.26,27.26,0,0,0,18.68,42Zm26,12.91c2.5,0,5,0,7.52,0,.25,0,.39,0,.34-.35a8.7,8.7,0,0,0-1.29-3.33A7.87,7.87,0,0,0,36.9,54.43c-.09.48-.09.49.42.49ZM30.18,23.84l.13,0,.17-.08a3.15,3.15,0,0,1,2.63-.19,3,3,0,0,1,1.83,3.79,3.89,3.89,0,0,1-1.52,1.94c-.78.54-1.58,1.05-2.38,1.56a.43.43,0,0,0-.23.56c.23.87.46,1.74.68,2.61a.39.39,0,0,0,.45.35h7.39c.28,0,.38-.09.35-.36-.16-1.35-.27-2.7-.48-4a17,17,0,0,0-1.88-5.54,10.43,10.43,0,0,0-3.22-3.7.5.5,0,0,0-.57,0,7.77,7.77,0,0,1-2.57.84c-.24,0-.4.12-.44.39s-.14.48-.18.73S30.23,23.46,30.18,23.84ZM35.29,36.1H31.35a2.75,2.75,0,0,0-.41,0,4.28,4.28,0,0,0-3.36,2.6,8.9,8.9,0,0,0-.68,3.67c0,1.42,0,2.84,0,4.26,0,.27.1.36.37.35.85,0,1.71,0,2.56,0,.3,0,.4-.09.4-.4q0-1.81,0-3.63a9.74,9.74,0,0,1,.13-1.62,1.92,1.92,0,0,1,1.53-1.63,5.44,5.44,0,0,1,1-.09c1.42,0,2.84,0,4.26-.13A2.45,2.45,0,0,0,39.38,38a7.83,7.83,0,0,0,.33-1.45c.06-.38,0-.41-.38-.41ZM27.57,12.8c1,0,1.94,0,2.91,0A1.67,1.67,0,0,1,32.27,14a3.25,3.25,0,0,1,.11.93c0,1.38,0,2.75,0,4.13,0,.32.06.35.32.2a7.08,7.08,0,0,0,.85-.58,6.48,6.48,0,0,0,1.25-8.24A5.65,5.65,0,0,0,28.44,8a5.75,5.75,0,0,0-4.11,4.5c-.06.25,0,.35.27.34C25.59,12.79,26.58,12.8,27.57,12.8ZM53.4,33.37c-2.08,0-4.16,0-6.23,0-.27,0-.37.07-.37.35,0,1.32,0,2.63,0,4,0,.26.08.34.34.34H58.45A1.45,1.45,0,0,0,60,36.46c0-.91,0-1.82,0-2.72,0-.3-.1-.38-.38-.37C57.53,33.38,55.46,33.37,53.4,33.37ZM10,48.49l-1,.09a4.08,4.08,0,0,0-.59.11A7.13,7.13,0,0,0,3.35,53c-.08.19,0,.27.16.31l4.24,1,4.39,1,4.69,1.09c.07,0,.22,0,.24,0a.42.42,0,0,0,0-.29c0-.08-.1-.13-.16-.19q-3.12-3.5-6.23-7C10.44,48.61,10.22,48.44,10,48.49ZM53.4,28h6.2c.29,0,.39-.09.38-.38,0-.49,0-1,0-1.47a1.44,1.44,0,0,0-1.46-1.44H48.24a1.4,1.4,0,0,0-1.42,1.37c0,.49,0,1,0,1.47s0,.44.43.44Zm-8.61,28.6H39.53c-.42,0-.47.05-.34.45a5.79,5.79,0,0,0,11.19,0c.12-.4.08-.43-.32-.43ZM9.88,60.74a12.76,12.76,0,0,0,1.38-.21,5,5,0,0,0,3.24-2.65c.09-.18.06-.29-.16-.33-1.17-.27-2.33-.55-3.5-.81L5.33,55.47c-.35-.08-.38-.06-.38.3A5.11,5.11,0,0,0,9.88,60.74ZM53.4,31.67c2.07,0,4.13,0,6.2,0,.28,0,.39-.08.38-.37s0-.77,0-1.16,0-.42-.41-.42H47.17c-.28,0-.38.08-.37.35s0,.8,0,1.19,0,.41.39.41ZM30.67,17.24c0-.8,0-1.61,0-2.41,0-.21-.07-.33-.31-.33H26a.26.26,0,0,0-.3.24,4,4,0,0,0,0,1.86,4.41,4.41,0,0,0,4.55,3.34c.31,0,.4-.12.39-.41C30.66,18.76,30.67,18,30.67,17.24ZM26.32,30.78h1.47a.93.93,0,0,0,.43-.12c1.36-.87,2.71-1.73,4-2.63a3.64,3.64,0,0,0,.89-.86,1.19,1.19,0,0,0,0-1.54,1.3,1.3,0,0,0-1.53-.44,3.25,3.25,0,0,0-.87.54c-1.17,1-2.32,2-3.5,3a1.49,1.49,0,0,1-.69.31c-.57.08-1.14.12-1.71.15-.25,0-.36.11-.34.37a8.42,8.42,0,0,1,0,.87c0,.27.07.38.35.37C25.31,30.77,25.82,30.79,26.32,30.78ZM27,50.88h2.88c.24,0,.33-.08.33-.33q0-.75,0-1.5c0-.28-.1-.36-.37-.36H26.1a2,2,0,0,0-2.2,1.79c-.08.36-.07.38.3.38Zm-13-23.52a3.46,3.46,0,0,0,0,.38c0,.9,0,1.79,0,2.69,0,.27.08.36.36.36h3.38c.56,0,.53,0,.58-.56a11.38,11.38,0,0,1,.28-1.36Zm7.43,3.42h1c.2,0,.29-.08.28-.28s0-.58,0-.87-.08-.3-.3-.28l-1.58.13a1.53,1.53,0,0,0-.37.08.7.7,0,0,0-.46.82c0,.3.19.39.62.39Z"/></svg>