<?xml version="1.0" encoding="utf-8"?>
<!-- Generator: Adobe Illustrator 16.0.0, SVG Export Plug-In . SVG Version: 6.00 Build 0)  -->
<!DOCTYPE svg PUBLIC "-//W3C//DTD SVG 1.1//EN" "http://www.w3.org/Graphics/SVG/1.1/DTD/svg11.dtd">
<svg version="1.1" id="Layer_1" xmlns="http://www.w3.org/2000/svg" xmlns:xlink="http://www.w3.org/1999/xlink" x="0px" y="0px"
	 width="512px" height="512px" viewBox="0 0 512 512" enable-background="new 0 0 512 512" xml:space="preserve">
<g>
	<path fill="#ebebeb" d="M263,76.68c78.332,0,156.666,0,235,0c-1.119,0.286-2.219,0.687-3.355,0.842
		c-26.875,3.673-46.442,25.51-46.584,52.671c-0.207,39.131-0.143,78.265-0.016,117.396c0.059,18.026,14.016,31.793,32.061,32.077
		c3.427,0.053,6.853,0.008,10.646,0.008c0,2.693,0,4.664,0,6.633c0,39.301,0.119,78.601-0.104,117.896
		c-0.041,7.301,2.278,12.203,9.354,14.477c-79,0-158,0-237,0c10.022-1.453,20.209-2.203,30.045-4.469
		c86.904-20.039,142.729-99.846,132.096-188.444c-8.295-69.125-61.19-128.242-129.188-143.906
		C285.145,79.37,273.992,78.369,263,76.68z"/>
	<path fill="#A1A1A1" d="M263,76.68c10.992,1.689,22.145,2.69,32.953,5.181c67.996,15.664,120.893,74.782,129.188,143.906
		c10.634,88.599-45.19,168.405-132.096,188.444c-9.836,2.266-20.021,3.016-30.045,4.469c-4.668,0-9.333,0-14,0
		c-1.792-0.299-3.574-0.76-5.376-0.871c-16.578-1.022-32.64-4.551-48.056-10.604C114.381,375.324,69.694,292.867,90.38,208.182
		c16.329-66.848,60.042-108.872,126.668-126.421c10.376-2.733,21.287-3.438,31.952-5.081C253.667,76.68,258.332,76.68,263,76.68z
		 M255.86,98.443c-82.423,0.142-148.985,66.716-149.089,149.119c-0.104,82.481,66.913,149.491,149.366,149.354
		c82.414-0.141,148.994-66.738,149.087-149.131C405.318,165.269,338.344,98.302,255.86,98.443z"/>
	<path fill="#ebebeb" d="M249,76.68c-10.665,1.642-21.575,2.348-31.952,5.081C150.422,99.31,106.709,141.334,90.38,208.182
		c-20.686,84.685,24.001,167.142,105.187,199.021c15.417,6.055,31.479,9.582,48.056,10.604c1.803,0.111,3.585,0.572,5.376,0.871
		c-68.333,0-136.667,0-205,0c7.105-2.252,9.391-7.186,9.357-14.469c-0.207-43.285-0.103-86.567-0.103-129.854
		c0-15.147-0.084-30.299,0.121-45.445c0.022-1.655,1.314-4.213,2.679-4.793c20.159-8.56,29.18-21.816,29.194-43.571
		c0.021-29.799-0.139-59.6,0.109-89.397C85.418,83.863,83.11,78.928,76,76.68C133.667,76.68,191.333,76.68,249,76.68z"/>
	<path fill="#A1A1A1" d="M76,76.68c7.11,2.249,9.418,7.184,9.358,14.47c-0.249,29.797-0.088,59.598-0.109,89.397
		c-0.015,21.755-9.036,35.011-29.194,43.571c-1.365,0.58-2.656,3.138-2.679,4.793c-0.205,15.146-0.121,30.298-0.121,45.446
		c0,43.285-0.104,86.567,0.103,129.854c0.034,7.283-2.252,12.217-9.357,14.469c-1,0-2,0-3,0c-6.879-2.541-9.133-7.483-9.109-14.729
		C32.086,346.283,32,288.619,32,230.955c0-1.98,0-3.961,0-6c-12.651-3.907-22.177-11.282-27.794-23.081
		C2.369,198.015,1.378,193.756,0,189.68c0-35,0-70,0-105c3-2.667,6-5.333,9-8c1,0,2,0,3,0c7.106,2.25,9.416,7.178,9.354,14.466
		c-0.252,29.625-0.124,59.254-0.073,88.881c0.005,2.812,0.133,5.696,0.763,8.418c1.27,5.487,4.3,9.792,9.956,12.881
		c0-2.482,0-4.282,0-6.081c0-34.622,0.137-69.243-0.112-103.862C31.836,84.138,34.116,79.203,41,76.68c1,0,2,0,3,0
		c7.101,2.249,9.403,7.172,9.354,14.458c-0.232,34.772-0.107,69.547-0.094,104.32c0,1.74,0.143,3.48,0.259,6.131
		c7.404-5.098,10.513-11.314,10.5-19.37c-0.05-30.281,0.135-60.563-0.131-90.844C63.824,84.132,66.119,79.201,73,76.68
		C74,76.68,75,76.68,76,76.68z"/>
	<path fill="#A1A1A1" d="M500,418.68c-7.076-2.272-9.396-7.176-9.355-14.477c0.226-39.297,0.105-78.596,0.105-117.896
		c0-1.969,0-3.938,0-6.633c-3.793,0-7.219,0.045-10.645-0.008c-18.046-0.283-32.002-14.051-32.062-32.077
		c-0.127-39.132-0.19-78.266,0.016-117.396c0.142-27.161,19.709-48.998,46.584-52.671c1.138-0.156,2.236-0.556,3.355-0.842
		c1.666,0,3.334,0,5,0c3,2.667,6,5.333,9,8c0,108.667,0,217.332,0,326c-3,2.668-6,5.332-9,8C502,418.68,501,418.68,500,418.68z
		 M490.588,100.456c-1.434,0.498-2.225,0.676-2.924,1.03c-12.582,6.371-18.389,16.843-18.402,30.715
		c-0.033,32.978-0.012,65.955-0.012,98.932c0,5.163-0.035,10.326,0.021,15.49c0.051,4.896,1.832,9.337,6.655,10.654
		c4.605,1.26,9.636,0.971,14.66,1.377C490.588,205.375,490.588,153.275,490.588,100.456z"/>
	<path fill="#ebebeb" d="M0,189.68c1.378,4.076,2.369,8.335,4.206,12.194C9.823,213.673,19.349,221.048,32,224.955
		c0,2.039,0,4.02,0,6c0,57.664,0.086,115.328-0.109,172.994c-0.024,7.246,2.23,12.188,9.109,14.729c-13.667,0-27.333,0-41,0
		C0,342.348,0,266.014,0,189.68z"/>
	<path fill="#ebebeb" d="M73,76.68c-6.881,2.521-9.176,7.452-9.112,14.696c0.266,30.279,0.081,60.563,0.131,90.844
		c0.013,8.056-3.096,14.272-10.5,19.37c-0.116-2.651-0.259-4.391-0.259-6.131c-0.014-34.773-0.139-69.548,0.094-104.32
		c0.049-7.286-2.253-12.21-9.354-14.458C53.666,76.68,63.333,76.68,73,76.68z"/>
	<path fill="#ebebeb" d="M41,76.68c-6.884,2.523-9.164,7.458-9.112,14.704C32.137,126.002,32,160.624,32,195.246
		c0,1.799,0,3.599,0,6.081c-5.656-3.089-8.686-7.395-9.956-12.881c-0.63-2.722-0.757-5.606-0.763-8.418
		c-0.051-29.627-0.179-59.256,0.073-88.881C21.416,83.857,19.106,78.93,12,76.68C21.666,76.68,31.333,76.68,41,76.68z"/>
	<path fill="#ebebeb" d="M9,76.68c-3,2.667-6,5.333-9,8c0-2.667,0-5.333,0-8C3,76.68,6,76.68,9,76.68z"/>
	<path fill="#ebebeb" d="M512,84.68c-3-2.667-6-5.333-9-8c3,0,6,0,9,0C512,79.346,512,82.013,512,84.68z"/>
	<path fill="#ebebeb" d="M503,418.68c3-2.668,6-5.332,9-8c0,2.668,0,5.332,0,8C509,418.68,506,418.68,503,418.68z"/>
	<path fill="#ebebeb" d="M255.86,98.443c82.484-0.141,149.458,66.826,149.365,149.342c-0.094,82.393-66.674,148.991-149.086,149.131
		c-82.454,0.137-149.47-66.873-149.366-149.354C106.875,165.159,173.437,98.584,255.86,98.443z M128.015,243.586
		c0,1.166-0.029,2.331,0.004,3.497c0.186,6.451,4.436,11.067,10.347,11.257c5.857,0.188,10.369-4.246,10.852-10.687
		c0.087-1.16,0.094-2.328,0.147-3.493c1.229-26.639,10.613-49.938,28.956-69.371c20.816-22.053,46.639-32.987,76.866-33.878
		c6.959-0.205,11.478-4.558,11.474-10.58c-0.004-6.245-4.888-10.847-11.968-10.553c-6.966,0.289-13.965,0.837-20.844,1.932
		C175.299,131.027,129.149,184.278,128.015,243.586z M383.984,251.784c0-1.166,0.026-2.331-0.004-3.495
		c-0.181-6.457-4.41-11.061-10.334-11.265c-5.863-0.202-10.384,4.222-10.869,10.659c-0.088,1.162-0.103,2.328-0.154,3.493
		c-1.234,27.018-10.879,50.566-29.617,70.107c-20.719,21.607-46.338,32.279-76.181,33.162c-6.943,0.205-11.491,4.572-11.49,10.559
		c0.001,6.254,4.873,10.859,11.947,10.576c6.801-0.271,13.633-0.811,20.348-1.879C336.697,364.301,382.768,311.385,383.984,251.784z
		"/>
	<path fill="#ebebeb" d="M490.588,100.456c0,52.819,0,104.919,0,158.199c-5.025-0.406-10.055-0.117-14.66-1.378
		c-4.824-1.316-6.604-5.757-6.656-10.653c-0.057-5.164-0.021-10.327-0.021-15.49c0-32.978-0.021-65.955,0.012-98.932
		c0.015-13.872,5.82-24.345,18.402-30.715C488.363,101.131,489.154,100.954,490.588,100.456z"/>
	<path fill="#A1A1A1" d="M128.015,243.586c1.134-59.308,47.285-112.559,105.833-121.875c6.879-1.095,13.878-1.643,20.844-1.932
		c7.082-0.294,11.964,4.308,11.968,10.553c0.004,6.022-4.514,10.375-11.474,10.58c-30.227,0.892-56.049,11.825-76.866,33.878
		c-18.343,19.433-27.726,42.732-28.956,69.371c-0.053,1.165-0.061,2.333-0.147,3.493c-0.483,6.441-4.994,10.875-10.852,10.687
		c-5.911-0.188-10.162-4.806-10.347-11.257C127.986,245.917,128.015,244.751,128.015,243.586z"/>
	<path fill="#A1A1A1" d="M383.984,251.784c-1.218,59.601-47.287,112.517-106.355,121.917c-6.715,1.068-13.547,1.607-20.348,1.879
		c-7.074,0.283-11.945-4.322-11.947-10.576c-0.001-5.986,4.547-10.354,11.49-10.559c29.843-0.883,55.462-11.555,76.181-33.162
		c18.738-19.541,28.383-43.09,29.617-70.107c0.053-1.165,0.065-2.331,0.154-3.493c0.485-6.437,5.006-10.861,10.868-10.659
		c5.925,0.204,10.154,4.808,10.334,11.265C384.012,249.453,383.984,250.618,383.984,251.784z"/>
</g>
</svg>
