<?xml version="1.0" encoding="utf-8"?>
<!-- Generator: Adobe Illustrator 16.0.0, SVG Export Plug-In . SVG Version: 6.00 Build 0)  -->
<!DOCTYPE svg PUBLIC "-//W3C//DTD SVG 1.1//EN" "http://www.w3.org/Graphics/SVG/1.1/DTD/svg11.dtd">
<svg version="1.1" id="Layer_1" xmlns="http://www.w3.org/2000/svg" xmlns:xlink="http://www.w3.org/1999/xlink" x="0px" y="0px"
	 width="512px" height="512px" viewBox="0 0 512 512" enable-background="new 0 0 512 512" xml:space="preserve">
<g>
	<path fill-rule="evenodd" clip-rule="evenodd" fill="#ADADAD" d="M512,295.465c-3.7,9.764-9.495,17.396-20.393,19.619
		c-2.411,0.49-4.933,0.623-7.402,0.625c-152.136,0.025-304.272-0.008-456.407,0.074C13.322,315.791,4.808,308.336,0,295.465
		c0-11.377,0-22.755,0-34.132c3.001-4.356,7.133-5.821,12.351-5.405C16.716,256.277,21.132,256,24.4,256
		C39.661,130.802,108.526,57.268,230.984,34.127c0-4.345-0.676-9.191,0.136-13.774C233.054,9.428,240.858,3.632,250.667,0
		c3.555,0,7.111,0,10.666,0c10.008,3.712,17.835,9.701,19.684,20.866c0.756,4.561,0.125,9.353,0.125,13.228
		C403.854,57.541,472.563,131.211,487.579,256c3.584,0,7.853,0.279,12.068-0.072c5.224-0.434,9.343,1.07,12.353,5.405
		C512,272.71,512,284.088,512,295.465z M468.713,255.692C465.85,147.407,373.215,46.439,247.371,51.531
		C125.054,56.481,44.815,158.448,43.462,255.692C185.21,255.692,326.957,255.692,468.713,255.692z M17.067,273.265
		c0,4.462-0.002,8.354,0,12.247c0.004,10.959,2.164,13.152,12.977,13.152c150.692,0.002,301.387,0.002,452.079-0.002
		c1.776,0,4,0.605,5.235-0.229c2.73-1.844,6.599-4.137,7.067-6.768c1.056-5.951,0.332-12.217,0.332-18.401
		C335.345,273.265,176.53,273.265,17.067,273.265z M264.493,25.503c-0.053-4.593-3.87-8.386-8.453-8.399
		c-4.809-0.012-8.734,4.063-8.533,8.855c0.192,4.58,4.14,8.264,8.717,8.136C260.806,33.967,264.546,30.082,264.493,25.503z"/>
	<path fill-rule="evenodd" clip-rule="evenodd" fill="#ADADAD" d="M0,346.666c3.002-4.361,7.15-5.494,12.354-5.432
		c20.07,0.242,40.145,0.096,60.219,0.1c10.326,0.002,12.421,2.027,12.773,12.297c0.029,0.857,0.188,1.711,0.35,3.129
		c12.284-2.02,24.289-4.205,36.369-5.861c4.078-0.559,8.541-0.523,12.49,0.521c27.432,7.242,54.756,14.889,82.163,22.227
		c4.052,1.084,8.346,1.686,12.538,1.738c15.275,0.205,30.554,0.063,45.83,0.086c31.763,0.049,49.551,28.865,35.52,57.5
		c-0.224,0.457-0.319,0.977-0.718,2.229c2.115,0,3.957,0,5.801,0c24.514,0.008,49.031-0.182,73.542,0.088
		c18.905,0.209,34.245,14.266,37.127,33.324c2.624,17.357-8.305,35.166-25.266,41.158c-2.138,0.756-4.283,1.486-6.427,2.23
		c-87.111,0-174.222,0-261.333,0c-8.993-4.061-17.962-8.178-26.988-12.164c-6.768-2.988-13.608-5.807-20.693-8.818
		c-1.151,7.654,2.218,15.896-5.652,20.982c-26.608,0-53.217,0-79.999,0C0,456.889,0,401.777,0,346.666z M196.394,435.199
		c2.42,0,4.34,0,6.259,0c24.347,0,48.693,0.029,73.042-0.012c13.42-0.023,22.979-8.986,22.951-21.375
		c-0.026-12.396-9.57-21.242-23.047-21.271c-16.527-0.035-33.056,0.072-49.583-0.072c-3.499-0.031-7.091-0.51-10.47-1.418
		c-27.24-7.316-54.41-14.896-81.684-22.084c-4.106-1.082-8.656-0.889-12.967-0.662c-4.051,0.215-8.061,1.24-12.084,1.934
		c-7.789,1.34-15.574,2.701-23.477,4.072c0,32.102-0.047,63.547,0.148,94.992c0.01,1.467,1.877,3.602,3.391,4.273
		c14.757,6.547,29.578,12.957,44.496,19.133c3.166,1.311,6.795,2.127,10.212,2.133c80.327,0.117,160.654,0.09,240.981,0.09
		c1.776-0.002,3.562,0.066,5.33-0.076c16.4-1.311,25.233-19.842,15.855-33.361c-4.638-6.686-11.263-9.27-19.288-9.264
		c-61.311,0.063-122.622,0.035-183.935,0.035c-2.035,0-4.07,0-6.133,0C196.394,446.256,196.394,441.119,196.394,435.199z
		 M67.892,494.693c0-45.627,0-90.816,0-135.861c-17.139,0-33.898,0-50.545,0c0,45.496,0,90.561,0,135.861
		C34.259,494.693,50.892,494.693,67.892,494.693z"/>
	<path fill-rule="evenodd" clip-rule="evenodd" fill="#ADADAD" d="M59.712,383.922c0.037,9.273-7.578,17.016-16.843,17.125
		c-9.257,0.107-17.085-7.48-17.251-16.721c-0.173-9.543,7.567-17.408,17.1-17.379C51.986,366.977,59.673,374.652,59.712,383.922z"/>
</g>
</svg>
