<?xml version="1.0" encoding="utf-8"?>
<!-- Generator: Adobe Illustrator 16.0.0, SVG Export Plug-In . SVG Version: 6.00 Build 0)  -->
<!DOCTYPE svg PUBLIC "-//W3C//DTD SVG 1.1//EN" "http://www.w3.org/Graphics/SVG/1.1/DTD/svg11.dtd">
<svg version="1.1" id="Layer_1" xmlns="http://www.w3.org/2000/svg" xmlns:xlink="http://www.w3.org/1999/xlink" x="0px" y="0px"
	 width="512px" height="512px" viewBox="0 0 512 512" enable-background="new 0 0 512 512" xml:space="preserve">
<g>
	<path fill="#AF231C" d="M512.002,239c-0.389,0.911-0.795,1.814-1.162,2.733c-3.748,9.359-12.994,14.75-22.279,12.985
		c-9.831-1.867-16.516-9.885-16.532-20.262c-0.063-35.994,0.03-71.988-0.088-107.981c-0.021-5.29-0.188-10.75-1.468-15.834
		c-4.332-17.232-19.85-29.248-37.651-29.59c-8.781-0.169-17.566-0.029-26.822-0.029c0,6.588,0.041,12.71-0.008,18.833
		c-0.103,12.22-8.504,21.1-19.938,21.13c-11.42,0.03-19.94-8.879-20.043-21.019c-0.051-6.131-0.008-12.263-0.008-18.677
		c-30.328,0-60.256,0-91.01,0c0,6.425,0.102,13.009-0.025,19.588c-0.16,8.212-3.902,14.396-11.275,18.054
		c-13.037,6.47-28.188-2.788-28.642-17.489c-0.203-6.623-0.034-13.257-0.034-20.16c-30.024,0-59.622,0-90.024,0
		c0,6.453,0.104,13.038-0.026,19.619c-0.166,8.211-3.918,14.391-11.296,18.039c-13.052,6.455-28.178-2.811-28.621-17.521
		c-0.201-6.621-0.034-13.253-0.034-19.987c-10.544,0-20.789-1.087-30.715,0.227c-20.596,2.726-34.229,19.31-34.276,40.245
		C39.942,158.563,40,195.223,40,231.883c0,65.988-0.005,131.977,0.003,197.967c0.004,26.396,16.689,43.142,43.002,43.148
		c49.657,0.01,99.314-0.012,148.972,0.016c9.293,0.004,16.582,4.812,19.643,12.726c2.915,7.535,1.229,16.278-4.831,21.543
		c-2.803,2.434-6.499,3.844-9.788,5.719c-55.333,0-110.667,0-166,0c-0.916-0.307-1.809-0.764-2.748-0.9
		c-32.022-4.78-58.339-28.688-65.983-60.009c-0.818-3.35-1.516-6.729-2.27-10.09C0,332,0,221.999,0,112
		c0.307-0.92,0.745-1.819,0.898-2.764C5.03,84.039,18.125,64.908,39.981,51.834c12.27-7.339,25.686-10.779,39.968-10.827
		c8.256-0.027,16.513-0.005,25.05-0.005c0-5.482,0.276-10.308-0.054-15.091C104.094,13.519,108.998,5.017,121,1c2.666,0,5.333,0,8,0
		c11.979,4.028,16.91,12.508,16.055,24.903C144.718,30.808,145,35.754,145,40.655c30.336,0,60.026,0,90.001,0
		c0-5.148,0.275-9.973-0.055-14.758C234.095,13.511,239.003,5.016,251,1c2.667,0,5.333,0,8.002,0
		c11.977,4.029,16.908,12.509,16.053,24.903C274.719,30.808,275,35.754,275,40.656c30.668,0,60.693,0,91.002,0
		c0-5.147,0.273-9.973-0.055-14.757C365.096,13.511,370.004,5.016,382,1c2.668,0,5.332,0,7.998,0
		c11.99,4.031,16.914,12.517,16.057,24.915c-0.338,4.904-0.055,9.852-0.055,15.09c9.289,0,17.92-0.06,26.555,0.01
		c36.121,0.294,67.322,24.487,76.687,59.454c1.022,3.816,1.844,7.686,2.762,11.531C512.002,154.333,512.002,196.667,512.002,239z"/>
	<path fill="#AF231C" d="M379.943,494.447c-9.83-2.338-19.914-3.918-29.443-7.14c-52.133-17.604-86.119-71.731-79.826-126.438
		c6.385-55.5,46.982-98.051,102.213-107.129c63.506-10.44,126.652,34.918,137.133,98.482c0.563,3.422,1.279,6.818,1.925,10.226
		c0,7.334,0,14.668,0,22c-0.308,1.098-0.773,2.172-0.9,3.288c-5.756,49.394-42.053,90.863-90.178,102.851
		c-6.24,1.553-12.611,2.586-18.922,3.861C394.609,494.447,387.275,494.447,379.943,494.447z M391.135,292.451
		c-44.725-0.066-81.162,36.252-81.188,80.922c-0.025,44.479,36.166,80.908,80.551,81.07c44.748,0.166,81.318-36.063,81.441-80.683
		C472.061,329.027,435.781,292.518,391.135,292.451z"/>
	<path fill="#AF231C" d="M144.925,192.465c-0.01,10.992-9.017,19.977-20.01,19.966c-10.999-0.011-19.969-9.009-19.956-20.014
		c0.016-11.014,8.993-19.971,20.005-19.958C135.969,172.473,144.936,181.459,144.925,192.465z"/>
	<path fill="#AF231C" d="M212.023,212.431c-10.996,0.044-20.026-8.915-20.065-19.905c-0.036-11.023,8.889-20.026,19.898-20.067
		c11.012-0.04,20.023,8.896,20.068,19.898C231.969,203.361,223.02,212.388,212.023,212.431z"/>
	<path fill="#AF231C" d="M298.957,212.431c-11,0.011-19.992-8.97-19.998-19.972c-0.006-11.018,8.951-19.992,19.963-20
		c11.008-0.008,19.99,8.958,20,19.963C318.936,203.419,309.953,212.421,298.957,212.431z"/>
	<path fill="#AF231C" d="M385.729,172.459c11.029-0.104,20.089,8.765,20.193,19.77c0.107,11.008-8.783,20.095-19.77,20.202
		c-11.006,0.108-20.095-8.792-20.193-19.777C365.857,181.629,374.734,172.563,385.729,172.459z"/>
	<path fill="#AF231C" d="M125.001,259.459c11.001,0.031,19.951,9.031,19.924,20.041c-0.028,10.986-9.05,19.959-20.044,19.93
		c-10.996-0.027-19.953-9.039-19.922-20.047C104.991,268.373,113.987,259.432,125.001,259.459z"/>
	<path fill="#AF231C" d="M211.914,259.459c11.007-0.014,19.995,8.949,20.011,19.955c0.016,10.996-8.962,20-19.958,20.016
		c-10.999,0.016-19.997-8.961-20.008-19.961C191.948,268.451,200.902,259.473,211.914,259.459z"/>
	<path fill="#AF231C" d="M104.959,366.172c0.133-10.996,9.223-19.844,20.252-19.711c10.988,0.133,19.844,9.23,19.713,20.252
		c-0.13,10.979-9.246,19.855-20.255,19.719C113.69,386.299,104.827,377.191,104.959,366.172z"/>
	<path fill="#AF231C" d="M231.925,366.477c-0.016,10.99-9.027,19.972-20.019,19.955c-10.999-0.016-19.966-9.016-19.948-20.022
		c0.021-11.015,9.001-19.966,20.016-19.947C222.976,346.477,231.94,355.471,231.925,366.477z"/>
	<path fill="#AF231C" d="M410.92,353.465c0-7.615,0.17-14.59-0.035-21.555c-0.328-11.031-9.186-19.5-20.053-19.451
		c-10.85,0.053-19.68,8.604-19.83,19.666c-0.188,13.992-0.219,27.988,0.018,41.98c0.181,10.576,8.589,18.992,19.158,19.262
		c10.156,0.264,20.326,0.262,30.484,0.004c10.766-0.273,19.166-9.098,19.262-19.727c0.099-10.863-8.381-19.729-19.354-20.162
		C417.592,353.365,414.609,353.465,410.92,353.465z"/>
	<path fill="#AF231C" d="M410.92,353.465c3.689,0,6.672-0.1,9.648,0.018c10.975,0.435,19.453,9.3,19.354,20.162
		c-0.096,10.629-8.496,19.453-19.262,19.728c-10.158,0.258-20.328,0.26-30.484-0.004c-10.569-0.271-18.979-8.687-19.157-19.263
		c-0.236-13.992-0.207-27.987-0.019-41.979c0.15-11.063,8.98-19.612,19.83-19.666c10.867-0.049,19.725,8.42,20.053,19.451
		C411.09,338.875,410.92,345.85,410.92,353.465z"/>
</g>
</svg>
