<?xml version="1.0" encoding="utf-8"?>
<!-- Generator: Adobe Illustrator 16.0.0, SVG Export Plug-In . SVG Version: 6.00 Build 0)  -->
<!DOCTYPE svg PUBLIC "-//W3C//DTD SVG 1.1//EN" "http://www.w3.org/Graphics/SVG/1.1/DTD/svg11.dtd">
<svg version="1.1" id="Layer_1" xmlns="http://www.w3.org/2000/svg" xmlns:xlink="http://www.w3.org/1999/xlink" x="0px" y="0px"
	 width="512px" height="512px" viewBox="0 0 512 512" enable-background="new 0 0 512 512" xml:space="preserve">
<g>
	<path fill="#ebebeb" d="M512.477,489.989c0,6.967,0,13.933,0,20.896c-163.004,0-326.008,0-489.012,0
		c-6.057-5.239-6.536-7.786-2.618-14.803c17.282-30.961,34.659-61.868,51.808-92.9c2.976-5.386,6.867-7.587,12.991-7.514
		c19.834,0.236,39.672,0.142,59.508,0.052c6.286-0.027,10.054-3.523,10.101-8.859c0.047-5.445-3.58-8.877-9.927-8.896
		c-21.054-0.063-42.109-0.087-63.162,0.067c-10.209,0.078-18.267,4.718-23.203,13.555C39.325,426.747,19.95,462.053,0.477,497.303
		c0-164.744,0-329.491,0-494.236c86.03,0,172.06,0,258.089,0c-3.075,0.402-6.152,0.783-9.225,1.207
		c-67.727,9.357-116.94,44.395-144.912,106.99c-17.132,38.337-20.36,77.998-5.125,118.292c8.832,23.359,19.951,45.504,32.374,67.08
		c30.237,52.517,66.88,100.477,104.816,147.521c1.125,1.396,2.207,2.827,3.935,5.045c-3.041,0-4.913,0-6.785,0.002
		c-12.188,0.005-24.376-0.078-36.564,0.056c-5.395,0.06-9.198,3.765-9.359,8.587c-0.167,4.978,3.809,8.873,9.368,9.143
		c1.389,0.065,2.786,0.015,4.178,0.015c33.082,0,66.164,0,99.248,0c12.535,0,25.071,0.049,37.607-0.021
		c6.028-0.034,10.146-3.779,10.118-8.924c-0.026-5.142-4.114-8.76-10.209-8.831c-7.14-0.086-14.278-0.021-21.416-0.021
		c-6.691-0.002-13.382,0-20.935,0c1.411-1.933,2.176-3.022,2.986-4.078c19.608-25.534,39.688-50.724,58.727-76.674
		c27.832-37.936,52.853-77.661,71.981-120.809c7.842-17.687,14.678-35.866,16.171-55.325c3.124-40.731-7.813-77.873-30.728-111.435
		c-5.956-8.721-13.218-16.584-20.216-24.545c-3.767-4.286-9.313-4.343-12.995-0.91c-3.805,3.545-3.783,8.57,0.072,13.008
		c0.8,0.919,1.66,1.783,2.501,2.667c13.313,14.024,23.955,29.843,31.336,47.725c14.315,34.683,17.869,69.727,4.063,105.645
		c-8.457,22-18.991,42.904-30.756,63.244c-32.448,56.099-71.887,107.173-113.01,157.025c-5.196,6.299-11.035,6.03-16.434-0.971
		c-25.29-32.794-51.093-65.223-75.47-98.684c-23.684-32.515-44.365-67.019-60.733-103.89c-8.426-18.98-16.127-38.501-15.585-59.619
		c1.598-62.275,29.227-110.002,83.609-140.473c43.458-24.352,89.401-26.015,136.015-8.575c7.954,2.976,12.811,1.814,14.969-3.791
		c2.164-5.615-0.468-9.932-8.638-12.83c-8.177-2.898-16.425-5.801-24.87-7.671c-10.31-2.285-20.859-3.495-31.306-5.17
		c78.368,0,156.735,0,235.103,0c0,150.117,0,300.234,0,450.352c-1.009-1.325-2.19-2.553-3-3.99
		c-10.389-18.486-20.808-36.959-31.046-55.531c-5.941-10.779-14.799-16.148-27.153-16.002c-12.008,0.145-24.017,0.023-36.023,0.031
		c-8.526,0.004-17.057-0.102-25.58,0.082c-5.364,0.114-8.719,3.416-8.966,8.231c-0.26,5.037,3.076,8.823,8.423,9.429
		c1.548,0.176,3.128,0.087,4.694,0.087c18.794,0.005,37.593,0.179,56.384-0.094c6.382-0.093,10.238,2.35,13.292,7.894
		c15.089,27.41,30.455,54.668,45.763,81.957C510.157,487.104,511.396,488.502,512.477,489.989z M357.631,172.662
		c-0.984-6.869-1.534-13.835-3.044-20.587c-3.534-15.81-11.229-29.5-22.449-41.18c-4.289-4.465-9.555-5.005-13.396-1.541
		c-3.935,3.551-3.896,8.724,0.113,13.423c0.678,0.795,1.404,1.548,2.09,2.336c15.121,17.342,20.965,37.411,17.126,60.078
		c-5.607,33.116-33.646,57.375-67.687,58.883c-32.497,1.439-62.521-20.736-71.25-52.625c-8.738-31.92,6.126-66.195,35.376-81.64
		c10.515-5.552,21.754-8.066,33.582-8.498c5.202-0.189,8.585-3.813,8.685-8.601c0.103-5-3.459-8.704-8.819-9.089
		c-1.384-0.1-2.785-0.03-4.176,0.028c-52.696,2.191-92.162,50.862-83.871,103.002c7.045,44.306,46.347,78.076,92.93,75.047
		C321.378,258.544,357.014,220.246,357.631,172.662z M107.542,475.979c-11.651,0-23.304-0.119-34.953,0.051
		c-6.015,0.087-9.521,3.563-9.542,8.772c-0.022,5.224,3.497,8.903,9.434,8.94c23.301,0.142,46.605,0.173,69.905-0.094
		c2.604-0.03,6.124-1.58,7.516-3.601c1.495-2.169,1.777-5.906,1.152-8.63c-0.922-4.015-4.604-5.401-8.56-5.415
		C130.844,475.962,119.192,475.988,107.542,475.979z M428.669,475.956c-11.303,0-22.608-0.065-33.91,0.024
		c-6.869,0.056-10.672,3.227-10.794,8.661c-0.128,5.623,3.894,9.136,10.894,9.152c22.434,0.062,44.867,0.063,67.301,0
		c6.809-0.019,10.631-3.263,10.744-8.729c0.118-5.756-3.665-9.032-10.845-9.087C450.93,475.895,439.8,475.956,428.669,475.956z
		 M419.479,422.332c-4.351,0-8.777-0.509-13.027,0.14c-4.465,0.683-9.178,1.738-13.037,3.937
		c-7.535,4.292-14.578,9.455-21.776,14.328c-5.57,3.77-7.05,8.671-4.129,13.213c2.981,4.632,8.467,5.259,14.191,1.495
		c6.536-4.297,12.922-8.834,19.567-12.955c2.076-1.287,4.766-2.138,7.2-2.205c9.215-0.254,18.442-0.035,27.662-0.133
		c6.226-0.066,10.142-3.573,10.155-8.79c0.013-5.187-3.902-8.801-10.106-8.983C430.616,422.213,425.046,422.343,419.479,422.332z
		 M116.601,422.334c-5.22,0-10.442-0.051-15.661,0.013c-7.05,0.087-11.199,3.4-11.278,8.889c-0.078,5.524,4.029,8.892,11.074,8.934
		c8.526,0.052,17.063-0.223,25.575,0.139c3.097,0.133,6.477,1.116,9.13,2.707c6.853,4.107,13.312,8.864,20.044,13.182
		c4.807,3.082,10.104,2.079,12.895-2.132c2.817-4.248,1.672-9.295-3.08-12.678c-3.823-2.722-8.033-4.941-11.657-7.895
		C142.781,424.645,130.972,419.347,116.601,422.334z"/>
	<path fill="#A1A1A1" d="M277.374,3.067c10.446,1.675,20.996,2.886,31.306,5.17c8.445,1.87,16.693,4.772,24.87,7.671
		c8.17,2.898,10.802,7.215,8.638,12.83c-2.158,5.604-7.015,6.767-14.969,3.791c-46.613-17.439-92.557-15.776-136.015,8.575
		c-54.382,30.471-82.011,78.198-83.609,140.473c-0.542,21.118,7.159,40.639,15.585,59.619
		c16.369,36.872,37.049,71.375,60.733,103.89c24.377,33.461,50.18,65.889,75.47,98.683c5.398,7.001,11.236,7.271,16.434,0.972
		c41.124-49.854,80.562-100.928,113.01-157.025c11.765-20.34,22.299-41.245,30.756-63.244
		c13.808-35.918,10.254-70.962-4.063-105.645c-7.381-17.882-18.021-33.701-31.336-47.725c-0.841-0.884-1.7-1.749-2.501-2.667
		c-3.855-4.438-3.877-9.463-0.072-13.008c3.682-3.433,9.229-3.376,12.995,0.91c6.998,7.961,14.26,15.825,20.216,24.545
		c22.915,33.563,33.852,70.704,30.728,111.435c-1.493,19.459-8.329,37.638-16.171,55.325
		c-19.13,43.148-44.149,82.875-71.981,120.809c-19.038,25.95-39.117,51.14-58.727,76.674c-0.811,1.056-1.575,2.146-2.986,4.078
		c7.553,0,14.242-0.002,20.935,0c7.138,0,14.276-0.063,21.416,0.021c6.095,0.072,10.183,3.69,10.209,8.832
		c0.028,5.145-4.09,8.89-10.118,8.924c-12.536,0.07-25.072,0.021-37.607,0.021c-33.084,0-66.166,0-99.248,0
		c-1.393,0-2.789,0.052-4.178-0.015c-5.559-0.27-9.535-4.165-9.368-9.143c0.161-4.823,3.964-8.527,9.359-8.587
		c12.188-0.134,24.376-0.051,36.564-0.056c1.872-0.002,3.744-0.002,6.785-0.002c-1.728-2.218-2.81-3.649-3.935-5.045
		c-37.936-47.044-74.579-95.005-104.816-147.521c-12.423-21.574-23.542-43.72-32.374-67.08
		c-15.235-40.295-12.007-79.955,5.125-118.292c27.972-62.595,77.185-97.633,144.912-106.99c3.072-0.424,6.149-0.805,9.225-1.207
		C264.837,3.067,271.105,3.067,277.374,3.067z"/>
	<path fill="#A1A1A1" d="M0.477,497.303c19.473-35.25,38.848-70.556,58.485-105.715c4.936-8.837,12.994-13.477,23.203-13.555
		c21.053-0.154,42.108-0.131,63.162-0.067c6.347,0.019,9.974,3.45,9.927,8.896c-0.046,5.335-3.814,8.831-10.101,8.858
		c-19.836,0.09-39.674,0.186-59.508-0.052c-6.124-0.073-10.015,2.128-12.991,7.514c-17.148,31.032-34.526,61.939-51.808,92.9
		c-3.918,7.017-3.439,9.563,2.618,14.803c-7.663,0-15.325,0-22.988,0C0.477,506.36,0.477,501.831,0.477,497.303z"/>
	<path fill="#A1A1A1" d="M512.477,489.989c-1.08-1.487-2.318-2.886-3.214-4.478c-15.308-27.289-30.674-54.547-45.763-81.957
		c-3.054-5.544-6.91-7.986-13.292-7.894c-18.791,0.271-37.59,0.098-56.384,0.094c-1.566,0-3.146,0.088-4.694-0.087
		c-5.347-0.604-8.683-4.393-8.423-9.429c0.247-4.815,3.602-8.117,8.966-8.231c8.523-0.184,17.054-0.078,25.58-0.083
		c12.008-0.007,24.017,0.113,36.023-0.03c12.354-0.146,21.212,5.223,27.153,16.002c10.238,18.572,20.657,37.045,31.046,55.531
		c0.81,1.438,1.991,2.665,3,3.99C512.477,465.609,512.477,477.799,512.477,489.989z"/>
	<path fill="#A1A1A1" d="M357.631,172.662c-0.617,47.584-36.253,85.882-84.789,89.038c-46.583,3.026-85.885-30.742-92.93-75.047
		c-8.292-52.141,31.175-100.811,83.871-103.002c1.391-0.058,2.792-0.128,4.176-0.028c5.361,0.385,8.922,4.089,8.818,9.089
		c-0.098,4.788-3.48,8.412-8.684,8.601c-11.828,0.431-23.067,2.945-33.582,8.498c-29.25,15.445-44.114,49.72-35.376,81.64
		c8.729,31.889,38.754,54.064,71.25,52.625c34.039-1.508,62.078-25.767,67.687-58.883c3.839-22.667-2.005-42.735-17.126-60.078
		c-0.686-0.788-1.412-1.541-2.09-2.336c-4.01-4.7-4.048-9.872-0.113-13.423c3.841-3.465,9.105-2.925,13.396,1.541
		c11.222,11.68,18.915,25.37,22.449,41.18C356.097,158.826,356.646,165.793,357.631,172.662z"/>
	<path fill="#A1A1A1" d="M107.542,475.983c11.651,0.005,23.302-0.021,34.953,0.021c3.956,0.014,7.638,1.4,8.56,5.415
		c0.625,2.724,0.343,6.461-1.152,8.63c-1.392,2.021-4.913,3.569-7.516,3.601c-23.299,0.267-46.604,0.234-69.905,0.094
		c-5.937-0.037-9.456-3.718-9.434-8.94c0.021-5.211,3.527-8.687,9.542-8.772C84.238,475.858,95.89,475.979,107.542,475.983z"/>
	<path fill="#A1A1A1" d="M428.669,475.956c11.131,0,22.261-0.063,33.39,0.022c7.18,0.055,10.963,3.331,10.845,9.088
		c-0.113,5.466-3.937,8.71-10.744,8.729c-22.434,0.063-44.867,0.063-67.301,0c-7-0.018-11.021-3.529-10.894-9.152
		c0.122-5.436,3.925-8.605,10.794-8.661C406.061,475.891,417.366,475.956,428.669,475.956z"/>
	<path fill="#A1A1A1" d="M419.479,422.337c5.567,0.006,11.139-0.124,16.7,0.04c6.204,0.184,10.119,3.798,10.106,8.983
		c-0.014,5.217-3.932,8.724-10.155,8.79c-9.22,0.098-18.447-0.121-27.662,0.133c-2.436,0.067-5.124,0.918-7.2,2.205
		c-6.646,4.121-13.031,8.658-19.567,12.955c-5.726,3.764-11.21,3.137-14.191-1.495c-2.921-4.542-1.441-9.443,4.129-13.213
		c7.198-4.873,14.241-10.036,21.776-14.328c3.859-2.197,8.572-3.254,13.037-3.937C410.7,421.823,415.128,422.332,419.479,422.337z"
		/>
	<path fill="#A1A1A1" d="M116.601,422.334c14.371-2.987,26.18,2.311,37.042,11.157c3.624,2.952,7.833,5.173,11.657,7.895
		c4.752,3.384,5.897,8.43,3.08,12.677c-2.791,4.212-8.088,5.215-12.895,2.133c-6.732-4.316-13.191-9.073-20.044-13.182
		c-2.653-1.591-6.034-2.574-9.13-2.707c-8.511-0.36-17.048-0.087-25.575-0.139c-7.044-0.042-11.152-3.408-11.074-8.934
		c0.079-5.487,4.228-8.802,11.278-8.889C106.159,422.283,111.381,422.334,116.601,422.334z"/>
</g>
</svg>
