<svg id="Layer_1" data-name="Layer 1" xmlns="http://www.w3.org/2000/svg" viewBox="0 0 53 71"><defs><style>.cls-1{fill:none;stroke:#ad2829;stroke-miterlimit:10;}</style></defs><path class="cls-1" d="M19.59,46.14c-3.05,7.39-13.25,5-16,12.54C2.34,62,3,66.17,3,69.63"/><path class="cls-1" d="M31.26,48.69c3.29,5.83,13.37,2.47,16.15,10C48.63,62,48,66.17,48,69.63"/><path class="cls-1" d="M17.8,48.39a11.39,11.39,0,0,0,9.42,2.69"/><line class="cls-1" x1="33.05" y1="65.59" x2="38.14" y2="65.59"/><path class="cls-1" d="M10.94,32.63c-.62-3.73-1.35-9.4.5-12.87,1.07-2,3.23-5,5.76-5,5.55,0,11.27-1.09,16.73.43,7.26,2,5.61,8.56,5.34,14.57,0,4.06-.46,7.51-3,10.78A13.69,13.69,0,0,1,26,45.84a15.37,15.37,0,0,1-8.17-2C13.7,41.52,11.7,37.17,10.94,32.63Z"/><path class="cls-1" d="M10,30.44s-3.44,1.49-3.29-5.69c0,0-1.05-18.4,11.21-21.39A41,41,0,0,1,27,2.1a21.81,21.81,0,0,1,5.29.33c.9.22,2.81.56,3.11,1.64s-1,1.5-1.68,1.93A14.32,14.32,0,0,0,36,6.91a29.79,29.79,0,0,1,3.94,1.3,13.36,13.36,0,0,1,5,3.26c1.86,2.3-1.12,3.93-1.49,6.4l.15,9.57"/></svg>