<?xml version="1.0" encoding="utf-8"?>
<!-- Generator: Adobe Illustrator 16.0.0, SVG Export Plug-In . SVG Version: 6.00 Build 0)  -->
<!DOCTYPE svg PUBLIC "-//W3C//DTD SVG 1.1//EN" "http://www.w3.org/Graphics/SVG/1.1/DTD/svg11.dtd">
<svg version="1.1" id="Layer_1" xmlns="http://www.w3.org/2000/svg" xmlns:xlink="http://www.w3.org/1999/xlink" x="0px" y="0px"
	 width="512px" height="512px" viewBox="0 0 512 512" enable-background="new 0 0 512 512" xml:space="preserve">
<g>
	<path fill-rule="evenodd" clip-rule="evenodd" fill="#ADADAD" d="M512.001,453c0,20.332,0,40.666,0,61
		c-71.334,0-142.668,0-214.001,0c-6.979-4.754-8.817-9.918-5.407-15.277c2.676-4.205,6.793-4.764,11.35-4.76
		C364.6,494.018,425.258,494,485.917,494c1.93,0,3.858,0,5.686,0c0-9.729,0-18.781,0-27.738c-157.315,0-314.234,0-471.276,0
		c0,9.316,0,18.367,0,27.738c2.293,0,4.27,0,6.246,0c59.992,0,119.982,0,179.975,0.002c1.666,0,3.344-0.088,4.997,0.064
		c4.644,0.424,7.782,2.945,9.044,7.385c1.221,4.293-0.317,7.852-3.781,10.582c-0.896,0.707-1.869,1.313-2.807,1.967
		c-71.334,0-142.666,0-214,0c0-20.408,0-40.703,0-61c2.935-5.438,7.436-7.523,13.602-7.082C18.994,446.307,24.436,446,30,446
		c0-2.955,0-5.115,0-7.277c0-125.992-0.002-251.985,0.006-377.979c0-9.272,3.425-12.73,12.605-12.738
		C64.443,47.987,86.275,48,108.107,48c1.755,0,3.51,0,5.644,0c0-11.532,0.219-22.344-0.086-33.141
		C113.495,8.832,115.471,4.531,121,2c90,0,180,0,270,0c5.52,2.537,7.774,6.831,7.299,12.862c-0.273,3.478-0.048,6.996-0.048,10.495
		c0,7.441,0,14.882,0,22.643c2.515,0,4.328,0,6.143,0c21.165,0,42.33-0.002,63.495,0c11.244,0.001,14.11,2.896,14.11,14.25
		c0.002,125.657,0.002,251.314,0.002,376.974c0,2.113,0,4.229,0,6.775c5.815,0,11.133,0.309,16.397-0.082
		C504.57,445.461,509.054,447.588,512.001,453z M461.774,68.343c-137.416,0-274.45,0-411.39,0c0,126.046,0,251.749,0,377.392
		c41.314,0,82.242,0,123.615,0c0-2.051,0-3.842,0-5.635c0.01-18.83-0.213-37.662,0.078-56.488
		c0.664-42.92,36.965-78.955,79.895-79.584c46.727-0.684,83.824,35.727,84.016,82.529c0.072,17.996,0.012,35.994,0.012,53.992
		c0,1.748,0,3.498,0,5.189c41.691,0,82.62,0,123.774,0C461.774,319.893,461.774,194.307,461.774,68.343z M378.033,22.406
		c-81.752,0-162.902,0-243.969,0c0,8.664,0,16.918,0,25.28c81.477,0,162.639,0,243.969,0
		C378.033,39.11,378.033,30.849,378.033,22.406z M317.981,445.795c0-20.541,0.214-40.527-0.062-60.506
		c-0.26-18.857-7.839-34.543-22.188-46.76c-8.462-7.205-18.21-11.869-29.408-13.465c0,40.477,0,80.543,0,120.73
		C283.577,445.795,300.507,445.795,317.981,445.795z M245.707,445.762c0-40.426,0-80.473,0-120.729
		c-1.128,0.162-1.949,0.227-2.746,0.402c-28.587,6.346-48.59,30.898-48.928,60.262c-0.161,13.994-0.031,27.99-0.033,41.986
		c0,5.951,0,11.904,0,18.078C211.43,445.762,228.358,445.762,245.707,445.762z"/>
	<path fill-rule="evenodd" clip-rule="evenodd" fill="#ADADAD" d="M253,514c-0.793-0.557-1.595-1.1-2.375-1.67
		c-3.871-2.834-5.581-6.574-4.078-11.236c1.475-4.578,4.858-7.109,9.696-7.002c4.604,0.102,7.819,2.615,9.21,6.998
		c1.484,4.678-0.214,8.404-4.08,11.236c-0.781,0.574-1.582,1.117-2.373,1.674C257,514,255,514,253,514z"/>
	<path fill-rule="evenodd" clip-rule="evenodd" fill="#ADADAD" d="M112.09,112.004c7.486-0.002,14.973-0.055,22.459,0.012
		c7.553,0.068,11.396,3.846,11.43,11.363c0.066,15.139,0.074,30.28-0.005,45.419c-0.037,7.239-3.907,11.137-11.11,11.175
		c-15.305,0.081-30.611,0.087-45.917-0.004c-6.888-0.041-10.873-4.002-10.913-10.857c-0.093-15.471-0.098-30.945,0.007-46.416
		c0.045-6.625,3.991-10.547,10.592-10.658C96.449,111.907,104.271,112.007,112.09,112.004z M125.773,132.349
		c-9.426,0-18.465,0-27.38,0c0,9.394,0,18.435,0,27.39c9.316,0,18.237,0,27.38,0C125.773,150.561,125.773,141.641,125.773,132.349z"
		/>
	<path fill-rule="evenodd" clip-rule="evenodd" fill="#ADADAD" d="M207.732,180c-7.32,0-14.641,0.04-21.96-0.011
		c-7.919-0.055-11.724-3.754-11.755-11.548c-0.057-14.973-0.057-29.946,0-44.919c0.029-7.601,3.801-11.464,11.286-11.498
		c15.14-0.07,30.278-0.072,45.417,0c7.469,0.035,11.232,3.911,11.262,11.528c0.057,14.972,0.061,29.946-0.002,44.919
		c-0.033,7.786-3.848,11.465-11.789,11.518C222.706,180.039,215.219,180,207.732,180z M221.746,159.79c0-9.488,0-18.407,0-27.492
		c-9.293,0-18.332,0-27.404,0c0,9.341,0,18.379,0,27.492C203.605,159.79,212.525,159.79,221.746,159.79z"/>
	<path fill-rule="evenodd" clip-rule="evenodd" fill="#ADADAD" d="M303.732,180c-7.32,0-14.64,0.04-21.961-0.011
		c-7.918-0.055-11.723-3.754-11.753-11.548c-0.058-14.973-0.058-29.946,0-44.919c0.028-7.601,3.8-11.464,11.285-11.498
		c15.139-0.07,30.278-0.072,45.418,0c7.468,0.035,11.231,3.911,11.26,11.528c0.058,14.972,0.062,29.946-0.001,44.919
		c-0.033,7.786-3.849,11.465-11.788,11.518C318.706,180.039,311.219,180,303.732,180z M290.097,159.695c9.463,0,18.501,0,27.556,0
		c0-9.347,0-18.386,0-27.303c-9.394,0-18.435,0-27.556,0C290.097,141.586,290.097,150.388,290.097,159.695z"/>
	<path fill-rule="evenodd" clip-rule="evenodd" fill="#ADADAD" d="M400.346,112.002c7.487,0,14.974-0.066,22.459,0.019
		c7.243,0.081,11.132,3.899,11.168,11.116c0.081,15.305,0.089,30.611-0.004,45.917c-0.043,6.897-3.994,10.871-10.863,10.914
		c-15.471,0.094-30.944,0.102-46.416-0.008c-6.622-0.048-10.599-4.006-10.646-10.605c-0.112-15.471-0.101-30.944-0.014-46.416
		c0.039-6.892,3.985-10.814,10.858-10.91C384.706,111.92,392.526,112.003,400.346,112.002z M413.809,132.384
		c-9.534,0-18.574,0-27.557,0c0,9.306,0,18.228,0,27.32c9.291,0,18.329,0,27.557,0C413.809,150.489,413.809,141.569,413.809,132.384
		z"/>
	<path fill-rule="evenodd" clip-rule="evenodd" fill="#ADADAD" d="M78.002,241.711c0-7.486-0.061-14.973,0.018-22.459
		c0.076-7.26,3.881-11.186,11.053-11.225c15.306-0.082,30.612-0.083,45.918,0.001c6.945,0.039,10.929,3.931,10.974,10.794
		c0.101,15.472,0.104,30.944-0.004,46.416c-0.048,6.848-4.048,10.695-11.038,10.732c-15.306,0.082-30.612,0.088-45.918-0.002
		c-7.112-0.041-10.915-4.029-10.985-11.299C77.944,257.018,78.002,249.365,78.002,241.711z M98.215,255.638
		c9.465,0,18.504,0,27.379,0c0-9.407,0-18.448,0-27.364c-9.328,0-18.25,0-27.379,0C98.215,237.465,98.215,246.385,98.215,255.638z"
		/>
	<path fill-rule="evenodd" clip-rule="evenodd" fill="#ADADAD" d="M242,242.24c0,7.32,0.041,14.64-0.012,21.959
		c-0.055,7.926-3.752,11.75-11.525,11.781c-14.973,0.061-29.946,0.061-44.919,0c-7.785-0.031-11.505-3.85-11.53-11.768
		c-0.045-14.809-0.047-29.615,0-44.422c0.025-8.119,3.754-11.76,12.018-11.78c14.641-0.037,29.281-0.037,43.92,0
		c8.471,0.021,12.006,3.651,12.043,12.269C242.023,227.6,242,234.919,242,242.24z M194.234,255.657c9.405,0,18.444,0,27.379,0
		c0-9.388,0-18.429,0-27.403c-9.309,0-18.229,0-27.379,0C194.234,237.426,194.234,246.346,194.234,255.657z"/>
	<path fill-rule="evenodd" clip-rule="evenodd" fill="#ADADAD" d="M337.996,242.283c0.002,7.486,0.066,14.973-0.016,22.459
		c-0.082,7.25-3.903,11.189-11.062,11.229c-15.306,0.084-30.612,0.086-45.917-0.002c-6.934-0.039-10.924-3.951-10.967-10.803
		c-0.098-15.471-0.098-30.944,0.002-46.416c0.043-6.631,3.978-10.656,10.54-10.705c15.638-0.114,31.277-0.117,46.915,0.004
		c6.514,0.051,10.381,4.125,10.477,10.776C338.082,226.643,337.996,234.463,337.996,242.283z M290.385,228.191
		c0,9.535,0,18.574,0,27.557c9.307,0,18.228,0,27.319,0c0-9.292,0-18.33,0-27.557C308.489,228.191,299.569,228.191,290.385,228.191z
		"/>
	<path fill-rule="evenodd" clip-rule="evenodd" fill="#ADADAD" d="M434,242.246c0,7.32,0.04,14.64-0.012,21.959
		c-0.056,7.926-3.753,11.744-11.531,11.775c-14.974,0.061-29.946,0.061-44.92,0c-7.779-0.031-11.499-3.854-11.523-11.775
		c-0.046-14.807-0.047-29.613,0-44.42c0.026-8.113,3.757-11.754,12.023-11.774c14.64-0.037,29.281-0.038,43.921,0
		c8.469,0.021,12,3.651,12.035,12.274C434.023,227.605,434,234.926,434,242.246z M386.343,228.233c0,9.405,0,18.444,0,27.38
		c9.388,0,18.428,0,27.403,0c0-9.31,0-18.23,0-27.38C404.574,228.233,395.654,228.233,386.343,228.233z"/>
	<path fill-rule="evenodd" clip-rule="evenodd" fill="#ADADAD" d="M78.003,337.654c0-7.486-0.065-14.975,0.019-22.461
		c0.08-7.244,3.893-11.129,11.109-11.168c15.306-0.078,30.611-0.084,45.917,0.004c6.901,0.041,10.877,3.979,10.919,10.852
		c0.095,15.471,0.102,30.943-0.009,46.416c-0.047,6.619-4.009,10.609-10.596,10.66c-15.471,0.113-30.944,0.102-46.416,0.012
		c-6.89-0.039-10.823-3.998-10.918-10.857C77.921,353.293,78.004,345.475,78.003,337.654z M98.331,324.244c0,9.371,0,18.41,0,27.381
		c9.376,0,18.417,0,27.426,0c0-9.299,0-18.219,0-27.381C116.598,324.244,107.678,324.244,98.331,324.244z"/>
	<path fill-rule="evenodd" clip-rule="evenodd" fill="#ADADAD" d="M400.121,304.004c7.486-0.002,14.973-0.057,22.458,0.014
		c7.531,0.07,11.367,3.865,11.4,11.393c0.064,15.139,0.074,30.279-0.007,45.418c-0.038,7.232-3.913,11.109-11.14,11.145
		c-15.305,0.08-30.611,0.09-45.917-0.004c-6.873-0.043-10.844-4.02-10.884-10.887c-0.089-15.473-0.098-30.945,0.009-46.416
		c0.047-6.619,4.002-10.52,10.622-10.629C384.479,303.908,392.301,304.006,400.121,304.004z M413.906,324.314
		c-9.487,0-18.525,0-27.548,0c0,9.357,0,18.396,0,27.283c9.405,0,18.446,0,27.548,0C413.906,342.393,413.906,333.59,413.906,324.314
		z"/>
</g>
</svg>
