<?xml version="1.0" encoding="utf-8"?>
<!-- Generator: Adobe Illustrator 16.0.0, SVG Export Plug-In . SVG Version: 6.00 Build 0)  -->
<!DOCTYPE svg PUBLIC "-//W3C//DTD SVG 1.1//EN" "http://www.w3.org/Graphics/SVG/1.1/DTD/svg11.dtd">
<svg version="1.1" id="Layer_1" xmlns="http://www.w3.org/2000/svg" xmlns:xlink="http://www.w3.org/1999/xlink" x="0px" y="0px"
	 width="512px" height="512px" viewBox="0 0 512 512" enable-background="new 0 0 512 512" xml:space="preserve">
<g>
	<path fill-rule="evenodd" clip-rule="evenodd" fill="#FFFFFF" d="M185.74,370.182c-4.854-8.266-9.574-15.9-13.852-23.781
		c-1.715-3.16-3.744-3.73-6.852-2.9c-11.245,3.004-22.663,5.459-33.721,9.035c-13.363,4.322-26.155,10.105-35.992,20.686
		c-11.676,12.557-11.945,29.676,0.218,41.719c5.688,5.631,12.626,10.479,19.815,14.021c25.287,12.479,52.763,16.98,80.43,20.313
		c33.693,4.059,67.49,4.301,101.301,1.877c26.967-1.934,53.641-5.814,79.494-14.023c14.025-4.453,27.65-9.934,38.455-20.445
		c13.871-13.494,14.033-31.691-0.039-44.996c-5.006-4.732-10.996-8.705-17.115-11.928c-16.35-8.604-34.178-12.908-52.197-16.363
		c-1.332-0.256-3.652,0.262-4.242,1.213c-5.135,8.279-9.98,16.742-15.221,25.676c4.107,0.738,7.523,1.316,10.922,1.973
		c17.189,3.318,34.252,7.09,49.789,15.619c2.934,1.611,5.521,3.855,9.018,6.34c-4.023,2.725-6.764,5.488-10.07,6.662
		c-13.279,4.725-26.453,10.355-40.174,13.137c-58.457,11.852-117.168,11.602-175.795,0.941
		c-15.725-2.857-31.219-6.941-45.326-14.895c-2.767-1.561-5.172-3.76-8.479-6.207C137.282,378.422,161.329,375.07,185.74,370.182z"
		/>
	<path fill-rule="evenodd" clip-rule="evenodd" fill="#FFFFFF" d="M266.998,2.248c10.871,2.337,22.033,3.771,32.564,7.161
		c59.512,19.158,99.668,77.706,95.369,138.978c-1.34,19.132-8.248,36.975-15.4,54.564c-21.824,53.685-50.605,103.765-80.063,153.476
		c-3.82,6.447-7.559,12.955-11.682,19.203c-15.209,23.041-49.014,23.424-63.473-0.066c-34.131-55.453-66.895-111.701-91.648-172.158
		c-7.51-18.341-14.607-36.959-15.771-57.01C113.188,82.478,160.018,20.469,222.457,6.37c7.445-1.681,15.024-2.763,22.543-4.123
		C252.333,2.248,259.666,2.248,266.998,2.248z M256.295,76.166c-30.93-0.12-56.163,24.762-56.299,55.519
		c-0.138,31.062,25.018,56.458,55.954,56.487c30.742,0.029,55.962-25.119,56.048-55.891
		C312.086,101.399,287.156,76.286,256.295,76.166z"/>
	<path fill-rule="evenodd" clip-rule="evenodd" fill="#FFFFFF" d="M0,411.246c5.492-24.459,23.093-38.402,43.476-49.832
		c7.442-4.172,16.295-1.611,20.396,5.496c4.018,6.965,1.829,15.377-5.06,20.184c-6.939,4.848-14.314,9.26-20.51,14.939
		c-11.094,10.174-11.005,19.85-0.406,30.525c12.511,12.604,28.413,19.564,44.683,25.631c32.322,12.049,65.972,18.277,100.131,22.08
		c36.667,4.082,73.432,5.084,110.258,2.959c49.211-2.844,97.826-9.225,143.82-28.133c11.416-4.693,22.529-10.963,32.42-18.334
		c17.215-12.83,16.846-25.326,0.111-38.846c-4.637-3.744-9.813-6.85-14.875-10.035c-7.939-4.998-10.598-13.561-6.313-20.986
		c4.268-7.389,13.213-9.506,21.297-5.027c1.311,0.727,2.6,1.488,3.881,2.264c18.426,11.162,33.77,24.863,38.691,47.115
		c0,4,0,8,0,12.002c-4.578,21.992-19.174,36.299-37.73,46.57c-13.611,7.535-27.971,14.094-42.641,19.271
		c-39.514,13.941-80.68,19.953-122.305,23.16c-8.775,0.678-17.551,1.332-26.324,1.996c-18.002,0-36.001,0-54,0
		c-1.453-0.26-2.896-0.617-4.359-0.768c-26.606-2.762-53.348-4.592-79.789-8.465c-32.636-4.779-64.495-13.213-94.221-27.979
		C27.267,465.43,6.16,451.254,0,423.248C0,419.246,0,415.246,0,411.246z"/>
	<path fill-rule="evenodd" clip-rule="evenodd" fill="#FFFFFF" d="M185.74,370.182c-24.411,4.889-48.458,8.24-69.634,23.672
		c3.308,2.447,5.713,4.646,8.479,6.207c14.107,7.953,29.602,12.037,45.326,14.895c58.627,10.66,117.338,10.91,175.795-0.941
		c13.721-2.781,26.895-8.412,40.174-13.137c3.307-1.174,6.047-3.938,10.07-6.662c-3.496-2.484-6.084-4.729-9.018-6.34
		c-15.537-8.529-32.6-12.301-49.789-15.619c-3.398-0.656-6.814-1.234-10.922-1.973c5.24-8.934,10.086-17.396,15.221-25.676
		c0.59-0.951,2.91-1.469,4.242-1.213c18.02,3.455,35.848,7.76,52.197,16.363c6.119,3.223,12.109,7.195,17.115,11.928
		c14.072,13.305,13.91,31.502,0.039,44.996c-10.805,10.512-24.43,15.992-38.455,20.445c-25.854,8.209-52.527,12.09-79.494,14.023
		c-33.811,2.424-67.607,2.182-101.301-1.877c-27.667-3.332-55.143-7.834-80.43-20.313c-7.189-3.543-14.128-8.391-19.815-14.021
		c-12.163-12.043-11.894-29.162-0.218-41.719c9.837-10.58,22.629-16.363,35.992-20.686c11.058-3.576,22.476-6.031,33.721-9.035
		c3.107-0.83,5.137-0.26,6.852,2.9C176.166,354.281,180.887,361.916,185.74,370.182z"/>
</g>
</svg>
