<?xml version="1.0" encoding="iso-8859-1"?>
<!-- Generator: Adobe Illustrator 19.0.0, SVG Export Plug-In . SVG Version: 6.00 Build 0)  -->
<svg version="1.1" id="Capa_1" xmlns="http://www.w3.org/2000/svg" xmlns:xlink="http://www.w3.org/1999/xlink" x="0px" y="0px"
	 viewBox="0 0 512 512" style="enable-background:new 0 0 512 512;" xml:space="preserve">
<g>
	<g>
		<path d="M480,192h-16c-8.864,0-16,7.168-16,16c0,8.832,7.136,16,16,16h16v161.632C448.704,392,424,416.704,417.632,448H190.368
			C184,416.704,159.296,392,128,385.632V368c0-8.832-7.168-16-16-16c-8.832,0-16,7.168-16,16v80c0,17.632,14.368,32,32,32h352
			c17.632,0,32-14.368,32-32V224C512,206.368,497.632,192,480,192z M128,448v-29.056c13.568,4.832,24.224,15.488,29.056,29.056H128z
			 M480,448h-29.056c4.832-13.568,15.488-24.224,29.056-29.056V448z" fill="#666666"/>
	</g>
</g>
<g>
	<g>
		<path d="M384,32H32C14.368,32,0,46.368,0,64v224c0,17.632,14.368,32,32,32h352c17.632,0,32-14.368,32-32V64
			C416,46.368,401.632,32,384,32z M384,64v29.056C370.432,88.224,359.776,77.568,354.944,64H384z M32,64h29.056
			C56.224,77.568,45.568,88.224,32,93.056V64z M32,288v-29.056c13.568,4.832,24.224,15.488,29.056,29.056H32z M321.632,288H94.368
			C88,256.704,63.296,232,32,225.632v-99.264C63.296,120,88,95.296,94.368,64H321.6c6.4,31.296,31.104,56,62.4,62.368V225.6
			C352.704,232,328,256.704,321.632,288z M384,304v-16h-29.056c4.832-13.568,15.488-24.224,29.056-29.056V288c0,0,0,0,0.032,0
			L384,304z"  fill="#666666"/>
	</g>
</g>
<g>
	<g>
		<path d="M208,128c-26.464,0-48,21.536-48,48s21.536,48,48,48s48-21.536,48-48S234.464,128,208,128z M208,192
			c-8.832,0-16-7.168-16-16c0-8.832,7.168-16,16-16c8.832,0,16,7.168,16,16C224,184.832,216.832,192,208,192z"  fill="#666666"/>
	</g>
</g>
<g>
</g>
<g>
</g>
<g>
</g>
<g>
</g>
<g>
</g>
<g>
</g>
<g>
</g>
<g>
</g>
<g>
</g>
<g>
</g>
<g>
</g>
<g>
</g>
<g>
</g>
<g>
</g>
<g>
</g>
</svg>
