<svg id="Layer_1" data-name="Layer 1" xmlns="http://www.w3.org/2000/svg" viewBox="0 0 64 68"><defs><style>.cls-1{fill:#d1302e;}</style></defs><path class="cls-1" d="M43.94,5.75a20.46,20.46,0,0,1,4.78.37,16,16,0,0,1,4.4,1.56,16.85,16.85,0,0,1,5.78,4.93,16.57,16.57,0,0,1,2.9,6.29,16,16,0,0,1,.45,4.62,17,17,0,0,1-6,12,.81.81,0,0,0-.3.68c0,2,0,4.11,0,6.16a1.15,1.15,0,0,1-1,1.3,1.3,1.3,0,0,1-1.06-.46C52.57,42,51.27,40.67,50,39.37a.74.74,0,0,0-.82-.24,15.27,15.27,0,0,1-4,.45c-1.44,0-2.89,0-4.34-.09a15,15,0,0,1-4.27-1,16.89,16.89,0,0,1-7.19-5.08,16.89,16.89,0,0,1,2.26-23.8,16.32,16.32,0,0,1,6.92-3.42A20.87,20.87,0,0,1,43.94,5.75Zm9.71,34c0-.19,0-.31,0-.43q0-2,0-3.9a1.37,1.37,0,0,1,.52-1.13c.15-.12.3-.26.46-.38a14.12,14.12,0,0,0,3-3.41,14.75,14.75,0,0,0,1.63-12.14A14.23,14.23,0,0,0,56,12.66a14.17,14.17,0,0,0-9.41-4.54,52.53,52.53,0,0,0-5.47,0,11.46,11.46,0,0,0-3.26.66,14.28,14.28,0,0,0-3.39,1.62,14.63,14.63,0,0,0-6.49,10,14.59,14.59,0,0,0,6.72,14.71,14,14,0,0,0,7,2.18c1.36,0,2.72,0,4.09,0a11.94,11.94,0,0,0,3.5-.54,1.66,1.66,0,0,1,1.91.54c.72.77,1.49,1.5,2.24,2.25Z"/><path class="cls-1" d="M22.2,61.35c0-.1,0-.2,0-.29v-1.7A1.24,1.24,0,0,1,23.61,58H35.82a5.85,5.85,0,0,0,3.38-1,5.43,5.43,0,0,0,2.34-3.24A7.76,7.76,0,0,0,41.78,52c0-2.54,0-5.08,0-7.62a2,2,0,0,1,.18-.84A1,1,0,0,1,43.11,43a1.14,1.14,0,0,1,1,1.09,2.81,2.81,0,0,1,0,.29c0,2.51,0,5,0,7.55a8.19,8.19,0,0,1-8.31,8.35H25c-.44,0-.44,0-.44.44,0,1.12,0,2.25,0,3.37a1.19,1.19,0,0,1-.89,1.28.9.9,0,0,1-.8-.15,2.07,2.07,0,0,1-.47-.37c-1.45-1.44-2.89-2.89-4.34-4.34a.73.73,0,0,0-.58-.24H11A8.06,8.06,0,0,1,6.44,59a7.9,7.9,0,0,1-3.69-5.73,14.37,14.37,0,0,1-.12-2q0-8.42,0-16.83a8.14,8.14,0,0,1,3.48-6.91A8,8,0,0,1,10.86,26H22.34a1.22,1.22,0,0,1,1.26.76,1.14,1.14,0,0,1-1.07,1.52H10.92a5.81,5.81,0,0,0-5,2.56,5.25,5.25,0,0,0-1,3.06c0,6.13,0,12.27,0,18.41a5.45,5.45,0,0,0,2,4.15A5.91,5.91,0,0,0,11,58c2.3,0,4.6,0,6.89,0a1.77,1.77,0,0,1,1.54.7c.63.77,1.39,1.43,2.09,2.14.2.19.38.4.57.61Z"/><path class="cls-1" d="M22.38,41.88h12a2,2,0,0,1,.85.17,1,1,0,0,1,.55,1.17,1.16,1.16,0,0,1-1.11.94H10.39A2.15,2.15,0,0,1,9.52,44,1,1,0,0,1,9,42.81a1.13,1.13,0,0,1,1.12-.92H22.38Z"/><path class="cls-1" d="M20.09,48.41h9.69a2.38,2.38,0,0,1,.59.07,1.11,1.11,0,0,1,0,2.14,2.68,2.68,0,0,1-.56.07H10.32A1.21,1.21,0,0,1,9,49.94a1.14,1.14,0,0,1,1.06-1.53h10Z"/><path class="cls-1" d="M18.6,35.36h8.21a2.07,2.07,0,0,1,.82.16,1.05,1.05,0,0,1,.57,1.13,1.16,1.16,0,0,1-1.11,1H10.36a2,2,0,0,1-.82-.17A1,1,0,0,1,9,36.31a1.13,1.13,0,0,1,1.1-.94H18.6Z"/><path class="cls-1" d="M35.79,49.55a1.13,1.13,0,0,1-2.26,0,1.13,1.13,0,0,1,2.26,0Z"/><path class="cls-1" d="M43.06,24.82V23.75a2.2,2.2,0,0,1,1.78-2.37,2.59,2.59,0,0,0,2-2.63,2.62,2.62,0,0,0-3.2-2.47,2.7,2.7,0,0,0-2,2.24,2.58,2.58,0,0,1-.26.95,1,1,0,0,1-1.21.45,1.06,1.06,0,0,1-.79-1,4.35,4.35,0,0,1,.43-2.19,4.87,4.87,0,0,1,6.62-2.31,4.68,4.68,0,0,1,2.54,3.12A4.75,4.75,0,0,1,48,21.93a4.49,4.49,0,0,1-2.29,1.55c-.29.08-.37.25-.37.54,0,.71,0,1.43,0,2.14a1.29,1.29,0,0,1-.43,1,1.11,1.11,0,0,1-1.18.16,1.09,1.09,0,0,1-.66-1c0-.51,0-1,0-1.54Z"/><path class="cls-1" d="M44.21,32.06a1.12,1.12,0,1,1,1.11-1.13A1.12,1.12,0,0,1,44.21,32.06Z"/></svg>