<?xml version="1.0" encoding="iso-8859-1"?>
<!-- Generator: Adobe Illustrator 19.0.0, SVG Export Plug-In . SVG Version: 6.00 Build 0)  -->
<svg version="1.1" id="Layer_1" xmlns="http://www.w3.org/2000/svg" xmlns:xlink="http://www.w3.org/1999/xlink" x="0px" y="0px"
	 viewBox="0 0 511.999 511.999" style="enable-background:new 0 0 511.999 511.999;" xml:space="preserve">
<g>
	<g>
		<path d="M378.418,321.569c-0.174,0-0.344,0.012-0.517,0.012c-22.076-21.178-49.419-20.494-49.675-20.494
			c-30.264,0-55.862-22.06-60.87-51.274c8.751-6.247,16.823-14.27,23.961-23.931c15.387-20.83,24.891-47.353,27.448-75.911
			c5.642-13.668,8.518-28.237,8.518-43.322C327.282,47.842,282.897,0,228.342,0c-14.229,0-28.036,3.269-41.078,9.719
			c-4.954,0.388-9.808,1.264-14.459,2.609c-45.481,13.141-71.137,68.324-57.193,123.011c1.296,5.078,2.93,10.074,4.838,14.886
			c3.967,43.444,23.735,79.741,51.291,99.437c-11.384,52.756-61.671,51.446-62.051,51.485
			c-39.554,1.334-71.325,33.905-71.325,73.778v67.647c0,16.6,13.505,30.103,30.103,30.103h186.995
			c6.164,0,11.161-4.996,11.161-11.161s-4.996-11.161-11.161-11.161H68.468c-4.291,0-7.782-3.491-7.782-7.781v-67.647
			c0-28.408,23.113-51.521,51.521-51.521c0.381,0,16.91,0,32.304-7.073c20.061,19.387,46.983,30.362,75.09,30.362
			c28.092,0,54.999-10.961,75.056-30.329c9.597,4.205,20.099,6.661,31.095,6.983c0.361,0.036,10.853-0.314,20.464,3.837
			c-36.7,13.232-63.012,48.396-63.012,89.6c0,52.501,42.713,95.215,95.215,95.215s95.216-42.714,95.216-95.215
			S430.92,321.569,378.418,321.569z M179.003,33.77c3.745-1.083,7.705-1.725,11.767-1.907c1.637-0.074,3.238-0.507,4.689-1.269
			c10.446-5.49,21.51-8.273,32.883-8.273c42.247,0,76.619,37.829,76.619,84.327c0,1.455-0.038,2.903-0.104,4.344
			c-6.436-9.266-17.088-14.499-31.721-14.499h-71.042c-4.065,0-7.925-1.277-11.163-3.694c-2.764-2.062-4.9-4.834-6.176-8.013
			c-2.173-5.414-7.542-8.801-13.363-8.433c-5.852,0.372-10.778,4.435-12.257,10.114c-3.97,15.257-11.772,29.349-22.468,40.894
			C126.98,85.065,145.622,43.415,179.003,33.77z M168.826,216.454c-13.769-16.821-22.81-39.513-25.742-64.369
			c13.858-11.834,24.834-26.773,31.976-43.433c0.809,0.709,1.648,1.389,2.515,2.036c7.123,5.318,15.6,8.129,24.515,8.129h71.042
			c12.531,0,22.835,9.658,23.895,21.92c-1.739,41.854-20.373,77.433-46.441,93.454c-0.548,0.267-13.578,9.084-30.99,9.084
			C201.013,243.272,182.982,233.747,168.826,216.454z M219.6,324.373c-20.36,0-39.922-7.276-55.288-20.244
			c13.389-11.055,23.347-26.165,27.885-43.508c8.719,3.242,17.913,4.974,27.401,4.974c9.383,0,18.545-1.663,27.3-4.882
			c4.561,17.329,14.536,32.423,27.935,43.464C259.477,317.116,239.935,324.373,219.6,324.373z M378.418,487.198
			c-38.826,0-70.413-31.587-70.413-70.413c0-38.826,31.587-70.414,70.413-70.414c38.827,0,70.414,31.589,70.414,70.414
			C448.833,455.611,417.244,487.198,378.418,487.198z" fill="#ffffff"/>
	</g>
</g>
<g>
	<g>
		<path d="M414.413,404.384h-23.594V380.79c0-6.848-5.552-12.401-12.401-12.401s-12.401,5.553-12.401,12.401v23.594h-23.594
			c-6.849,0-12.401,5.553-12.401,12.401c0,6.848,5.552,12.401,12.401,12.401h23.594v23.594c0,6.848,5.552,12.401,12.401,12.401
			s12.401-5.553,12.401-12.401v-23.594h23.594c6.849,0,12.401-5.553,12.401-12.401C426.814,409.937,421.262,404.384,414.413,404.384
			z"  fill="#ffffff"/>
	</g>
</g>
<g>
</g>
<g>
</g>
<g>
</g>
<g>
</g>
<g>
</g>
<g>
</g>
<g>
</g>
<g>
</g>
<g>
</g>
<g>
</g>
<g>
</g>
<g>
</g>
<g>
</g>
<g>
</g>
<g>
</g>
</svg>
