<?xml version="1.0" encoding="utf-8"?>
<!-- Generator: Adobe Illustrator 16.0.0, SVG Export Plug-In . SVG Version: 6.00 Build 0)  -->
<!DOCTYPE svg PUBLIC "-//W3C//DTD SVG 1.1//EN" "http://www.w3.org/Graphics/SVG/1.1/DTD/svg11.dtd">
<svg version="1.1" id="Layer_1" xmlns="http://www.w3.org/2000/svg" xmlns:xlink="http://www.w3.org/1999/xlink" x="0px" y="0px"
	 width="512px" height="512px" viewBox="0 0 512 512" enable-background="new 0 0 512 512" xml:space="preserve">
<g>
	<path fill="#FFFFFF" d="M356.323,218.481c-0.079-5.488-4.474-9.861-9.896-9.847c-5.367,0.014-9.828,4.482-9.887,9.902
		c-0.061,5.666,4.494,10.135,10.193,9.999C352.242,228.403,356.404,224.039,356.323,218.481z"/>
	<path fill="#FFFFFF" d="M164.998,65.482c0.563,0.309,1.094,0.728,1.696,0.911c14.792,4.513,22.675,14.935,22.763,30.759
		c0.133,24.328,0.039,48.658,0.039,72.986c0,3.967,0,7.933,0,11.344c14.732,0,28.965-0.004,43.199,0.001
		c16,0.005,27.063,7.109,31.605,20.28c4.501,13.051,0.285,25.148-12.182,35.002c-0.252,0.199-0.42,0.506,0.449,0.694
		c0.645,7.522,1.76,15.04,1.848,22.568c0.252,21.658,0.088,43.324,0.088,64.986c0,1.969,0,3.937,0,6.467
		c9.086,0,17.711,0.107,26.33-0.031c8.146-0.133,16.427,0.326,24.399-0.977c18.213-2.977,31.336-18.506,31.914-36.984
		c0.349-11.154,0.022-22.329,0.229-33.491c0.155-8.545,7.087-13.853,13.812-10.298c2.558,1.353,5.636,4.811,5.669,7.347
		c0.204,15.458,1.166,31.159-1.079,46.343c-4.047,27.373-28.819,47.563-56.536,48.008c-17.324,0.279-34.66,0.088-51.99,0.078
		c-9.232-0.006-12.727-3.406-12.741-12.63c-0.048-27.993,0.065-55.989-0.134-83.983c-0.022-3.3-0.746-7.306-2.719-9.672
		c-1.802-2.161-5.729-3.522-8.738-3.552c-24.826-0.248-49.664-0.493-74.482,0C87.096,242.855,32.256,291.164,22.932,351.83
		c-0.959,6.234-1.506,12.534-2.297,19.257c7.123,0,13.699,0,20.797,0c3.913-25.979,16.719-46.702,39.309-60.973
		c15.741-9.942,33.081-14.03,51.525-12.358c39.525,3.583,69.24,32.242,76.273,73.727c1.609,0,3.362,0,5.116,0
		c36.826,0,73.653-0.112,110.479,0.06c13.716,0.063,23.392-5.735,30.008-17.703c14.415-26.073,29.188-51.951,43.619-78.021
		c1.216-2.196,1.784-5.392,1.261-7.822c-7.587-35.297-15.408-70.544-23.19-105.799c-0.25-1.132-0.668-2.228-1.045-3.458
		c-5.626,0-11.218,0-17.479,0c0,7.044,0.157,13.845-0.055,20.635c-0.147,4.719-2.986,7.785-7.44,8.903
		c-4.254,1.067-8.179-0.24-10.416-4.065c-1.268-2.165-1.744-5.012-1.861-7.584c-0.263-5.81-0.083-11.64-0.083-18.144
		c-2.431,0-4.537,0-6.645,0c-14.331,0-28.661,0.02-42.992-0.005c-15.986-0.029-27.729-10.955-27.802-25.82
		c-0.071-15.094,11.684-26.104,27.971-26.17c6.167-0.025,12.341,0.175,18.491-0.131c1.555-0.078,3.639-1.337,4.448-2.677
		c5.294-8.76,12.929-13.173,23.109-13.188c18.83-0.026,37.66,0.046,56.49-0.037c6.784-0.029,12.719,1.952,18.021,6.205
		c1.021,0.821,3.147,1.485,4.104,0.976c6.486-3.448,13.424-3.542,20.456-3.417c4.664,0.084,9.337-0.102,13.995,0.082
		c5.854,0.231,9.748,3.948,9.825,9.81c0.175,13.328,0.154,26.662,0.004,39.991c-0.063,5.438-3.441,9.632-8.793,9.768
		c-12.366,0.313-25.031,2.494-36.021-3.623c-5.44,3.077-10.443,5.905-16.084,9.092c0.025,0.383-0.047,1.683,0.226,2.907
		c7.189,32.49,14.457,64.962,21.563,97.471c0.604,2.743,1.524,3.8,4.438,4.039c52.153,4.319,85.848,45.356,89.978,85.948
		c0.063,0.611,0.501,1.188,0.765,1.777c0,4.334,0,8.668,0,13c-2.988,5.318-7.434,7.578-13.584,7.031
		c-4.026-0.355-8.11-0.065-12.574-0.065c0.55,1.815,0.863,2.907,1.21,3.989c8.525,26.759-2.52,55.388-27.145,68.625
		c-6.438,3.464-13.909,4.999-20.907,7.422c-61,0-122,0-183,0c-4.183-2.175-7.471-4.957-7.336-10.254
		c0.155-6.146,4.467-9.769,11.94-9.771c40.462-0.021,80.923-0.008,121.385-0.021c1.73,0,3.463-0.145,5.808-0.245
		c-14.188-18.415-17.351-38.029-9.225-60.784c-5.557,1.162-11.62,0.572-14.188,3.289c-11.382,12.027-24.776,17.891-41.246,17.838
		c-44.956-0.148-89.915-0.051-134.871-0.051c-1.956,0-3.911,0-6.121,0c-0.07,1.438-0.111,2.396-0.163,3.354
		c-1.171,21.795-11.018,38.54-30.041,49.176c-6.378,3.566-13.926,5.038-20.939,7.47c-43.666,0-87.334,0-131,0c0-4.332,0-8.667,0-13
		c2.875-5.481,7.383-7.229,13.522-7.145c20.278,0.284,40.562,0.108,60.843,0.106c1.574,0,3.147,0,5.811,0
		c-9.937-12.118-14.25-25.229-14.336-39.965c-17.736,0-35.008-0.199-52.269,0.106c-6.141,0.108-10.62-1.728-13.571-7.106
		c0-7.334,0-14.668,0-22c0.295-1.43,0.713-2.848,0.865-4.291c3.244-30.672,14.745-57.863,34.436-81.57
		c3.806-4.581,7.938-8.891,12.613-14.094c-2.422-2.063-4.793-3.9-6.955-5.957c-7.623-7.244-14.213-15.313-25.01-18.981
		c-9.223-3.134-13.305-12.018-15.949-21.106c0-22,0-44,0-66c0.277-1.101,0.657-2.186,0.819-3.304
		c5.69-39.308,33.347-69.912,71.622-79.184c3.83-0.928,7.703-1.679,11.557-2.512C111.664,65.482,138.332,65.482,164.998,65.482z
		 M24.563,137.559c2.388,0,4.175,0,5.964,0c32.15,0,64.301-0.016,96.449,0.033c2.299,0.004,4.712,0.114,6.87,0.806
		c4.637,1.486,6.983,5.686,6.374,10.589c-0.557,4.47-3.963,7.915-8.528,8.457c-1.646,0.194-3.327,0.112-4.991,0.112
		c-33.315,0.005-66.632,0.004-99.947,0.004c-1.775,0-3.549,0-5.525,0c-0.098,1.894-0.221,3.192-0.223,4.492
		c-0.012,15.825-0.035,31.65,0.004,47.475c0.021,8.242,3.68,11.938,11.887,11.942c41.645,0.027,83.29,0.029,124.936-0.002
		c7.694-0.006,11.573-3.579,11.594-11.205c0.099-37.813,0.096-75.627,0.006-113.44c-0.018-7.701-3.83-11.306-11.479-11.321
		c-21.322-0.043-42.649-0.254-63.967,0.072c-22.179,0.34-40.641,9.221-55.207,25.919C32.297,118.923,27.412,127.333,24.563,137.559z
		 M492.046,351.24c-0.07-1.414-0.036-2.252-0.164-3.063c-5.43-34.524-36.869-62.825-71.604-64.635
		c-2.984-0.155-4.408,0.948-5.77,3.396c-11.239,20.218-22.604,40.36-33.909,60.541c-0.611,1.093-1.031,2.295-1.681,3.762
		C416.819,351.24,454.231,351.24,492.046,351.24z M187.838,371.271c-2.887-25.604-27.465-54.697-64.687-53.754
		c-35.812,0.905-58.766,30.039-60.929,53.754C103.972,371.271,145.701,371.271,187.838,371.271z M433.118,371.447
		c-8.991,0-17.987,0.164-26.977-0.086c-3.355-0.094-5.063,1.172-6.576,3.992c-8.584,15.982-4.708,35.98,9.363,47.451
		c14.166,11.549,34.489,11.479,48.326-0.166c14.063-11.834,17.762-31.6,9.046-47.516c-1.444-2.643-3.068-3.83-6.208-3.755
		C451.105,371.587,442.109,371.447,433.118,371.447z M87.174,391.75c-0.786,22.235,16.793,40.093,38.668,39.688
		c21.13-0.393,38.507-18.988,36.809-39.688C137.637,391.75,112.599,391.75,87.174,391.75z M362.021,138.48
		c9.497,0,18.995-0.049,28.492,0.022c4.327,0.032,6.527-1.861,6.49-6.274c-0.045-5.166-0.039-10.332-0.002-15.496
		c0.03-4.082-1.869-6.241-6.017-6.243c-18.994-0.006-37.99-0.008-56.983,0.002c-4.153,0.002-6.027,2.201-5.993,6.267
		c0.036,4.499-0.004,8.998,0.008,13.497c0.017,7.022,1.166,8.211,8.013,8.223C344.692,138.493,353.357,138.482,362.021,138.48z
		 M217.791,221.48c5.666,0,11.334,0.061,16.998-0.016c6.739-0.091,11.266-4.265,11.166-10.151c-0.098-5.706-4.506-9.755-11-9.804
		c-11.498-0.086-22.996-0.089-34.494,0.002c-6.543,0.051-10.799,4.06-10.842,9.887c-0.043,5.865,4.187,9.936,10.676,10.057
		C206.125,221.563,211.959,221.478,217.791,221.48z M436.77,114.233c-2.877,0-5.195-0.007-7.513,0.003
		c-0.996,0.004-1.996-0.011-2.987,0.079c-5.041,0.457-8.724,4.02-9.204,8.864c-0.491,4.951,2.715,9.709,7.854,10.493
		c3.817,0.583,7.801,0.115,11.851,0.115C436.77,127.308,436.77,121.064,436.77,114.233z M307.894,126.513
		c-7.687,0-14.792-0.131-21.892,0.054c-3.646,0.095-5.92,2.298-5.895,6.021c0.027,3.46,2.167,5.69,5.589,5.787
		c7.398,0.209,14.808,0.064,22.195,0.064C307.894,134.284,307.894,130.693,307.894,126.513z M56.404,241.73
		c2.729,3.101,5.215,5.928,7.65,8.695c4.404-2.918,8.318-5.513,13.124-8.695C69.562,241.73,63.072,241.73,56.404,241.73z"/>
	<path fill="#FFFFFF" d="M215.998,451.48c-2.358-2.584-5.65-4.798-6.861-7.84c-1.913-4.807,1.187-9.712,6.017-11.521
		c4.701-1.759,9.989,0.343,12.228,4.861c2.225,4.49,0.806,9.825-3.424,12.729c-0.944,0.648-1.971,1.182-2.959,1.768
		C219.332,451.48,217.664,451.48,215.998,451.48z"/>
	<path fill="#FFFFFF" d="M356.323,218.481c0.081,5.558-4.081,9.922-9.587,10.054c-5.699,0.136-10.254-4.333-10.195-9.999
		c0.061-5.42,4.521-9.889,9.889-9.902C351.85,208.62,356.244,212.993,356.323,218.481z"/>
</g>
</svg>
