<?xml version="1.0" standalone="no"?>
<!DOCTYPE svg PUBLIC "-//W3C//DTD SVG 20010904//EN"
 "http://www.w3.org/TR/2001/REC-SVG-20010904/DTD/svg10.dtd">
<svg version="1.0" xmlns="http://www.w3.org/2000/svg"
 width="512.000000pt" height="512.000000pt" viewBox="0 0 512.000000 512.000000"
 preserveAspectRatio="xMidYMid meet">

<g transform="translate(0.000000,512.000000) scale(0.100000,-0.100000)"
fill="#af231c" stroke="none">
<path d="M2315 5109 c-786 -75 -1501 -518 -1927 -1196 -487 -774 -516 -1777
-75 -2578 117 -213 253 -395 430 -573 212 -215 419 -364 692 -498 260 -127
509 -203 810 -246 119 -17 512 -16 635 1 622 86 1148 360 1572 820 349 378
573 862 650 1406 20 139 17 503 -6 660 -21 155 -80 393 -131 531 -45 123 -167
374 -231 474 -159 251 -413 527 -639 696 -514 384 -1147 563 -1780 503z m525
-373 c661 -89 1232 -457 1585 -1021 162 -259 276 -587 315 -905 24 -204 7
-518 -41 -734 -69 -309 -236 -653 -441 -903 -357 -438 -891 -729 -1453 -793
-130 -14 -394 -12 -521 4 -844 112 -1542 686 -1804 1486 -81 244 -110 429
-110 690 0 261 29 446 110 690 260 794 954 1369 1790 1485 130 17 440 18 570
1z"/>
<path d="M1925 3451 c-40 -24 -71 -60 -84 -94 -15 -39 -15 -1555 0 -1594 13
-34 55 -80 91 -99 15 -8 50 -14 78 -14 46 0 112 31 820 385 733 367 771 387
797 426 22 34 28 54 28 99 0 45 -6 65 -28 99 -26 39 -64 59 -797 426 -721 360
-773 385 -822 385 -34 0 -64 -7 -83 -19z m710 -673 c234 -117 425 -215 425
-218 0 -7 -847 -430 -860 -430 -7 0 -10 151 -10 430 0 279 3 430 10 430 5 0
201 -96 435 -212z"/>
</g>
</svg>
