<?xml version="1.0" encoding="utf-8"?>
<!-- Generator: Adobe Illustrator 16.0.0, SVG Export Plug-In . SVG Version: 6.00 Build 0)  -->
<!DOCTYPE svg PUBLIC "-//W3C//DTD SVG 1.1//EN" "http://www.w3.org/Graphics/SVG/1.1/DTD/svg11.dtd">
<svg version="1.1" id="Layer_1" xmlns="http://www.w3.org/2000/svg" xmlns:xlink="http://www.w3.org/1999/xlink" x="0px" y="0px"
	 width="162.193px" height="161.097px" viewBox="0 0 162.193 161.097" enable-background="new 0 0 162.193 161.097"
	 xml:space="preserve">
<rect x="79.666" y="0.5" fill="#C6C8C9" width="2.067" height="7.237"/>
<g>
	<defs>
		<rect id="SVGID_1_" width="162.193" height="161.097"/>
	</defs>
	<clipPath id="SVGID_2_">
		<use xlink:href="#SVGID_1_"  overflow="visible"/>
	</clipPath>
	
		<rect x="79.666" y="0.5" clip-path="url(#SVGID_2_)" fill="none" stroke="#C6C8C9" stroke-miterlimit="10" width="2.067" height="7.237"/>
</g>
<rect x="118.651" y="9.553" transform="matrix(0.8385 0.5448 -0.5448 0.8385 26.7967 -62.8831)" fill="#C6C8C9" width="1.688" height="8.435"/>
<rect x="118.651" y="9.553" transform="matrix(0.8385 0.5448 -0.5448 0.8385 26.7967 -62.8831)" fill="none" stroke="#C6C8C9" stroke-miterlimit="10" width="1.688" height="8.435"/>
<rect x="145.649" y="38.237" transform="matrix(0.5224 0.8527 -0.8527 0.5224 106.1743 -104.6398)" fill="#C6C8C9" width="1.686" height="8.436"/>
<rect x="145.649" y="38.237" transform="matrix(0.5224 0.8527 -0.8527 0.5224 106.1743 -104.6398)" fill="none" stroke="#C6C8C9" stroke-miterlimit="10" width="1.686" height="8.436"/>
<rect x="146.494" y="114.168" transform="matrix(-0.5022 0.8648 -0.8648 -0.5022 323.702 50.4246)" fill="#C6C8C9" width="1.686" height="8.436"/>
<rect x="146.494" y="114.168" transform="matrix(-0.5022 0.8648 -0.8648 -0.5022 323.702 50.4246)" fill="none" stroke="#C6C8C9" stroke-miterlimit="10" width="1.686" height="8.436"/>
<rect x="118.651" y="142.854" transform="matrix(-0.8555 0.5177 -0.5177 -0.8555 297.8718 211.034)" fill="#C6C8C9" width="1.688" height="8.437"/>
<rect x="118.651" y="142.854" transform="matrix(-0.8555 0.5177 -0.5177 -0.8555 297.8718 211.034)" fill="none" stroke="#C6C8C9" stroke-miterlimit="10" width="1.688" height="8.437"/>
<rect x="76.468" y="155.51" transform="matrix(-0.0194 -0.9998 0.9998 -0.0194 -74.0688 240.065)" fill="#C6C8C9" width="8.436" height="1.687"/>
<g>
	<defs>
		<rect id="SVGID_3_" width="162.193" height="161.097"/>
	</defs>
	<clipPath id="SVGID_4_">
		<use xlink:href="#SVGID_3_"  overflow="visible"/>
	</clipPath>
	
		<rect x="79.844" y="152.135" transform="matrix(-0.9998 0.0197 -0.0197 -0.9998 164.4364 311.0871)" clip-path="url(#SVGID_4_)" fill="none" stroke="#C6C8C9" stroke-miterlimit="10" width="1.686" height="8.435"/>
</g>
<rect x="41.875" y="142.853" transform="matrix(-0.9149 -0.4037 0.4037 -0.9149 22.4362 298.8722)" fill="#C6C8C9" width="1.689" height="8.436"/>
<rect x="41.875" y="142.853" transform="matrix(-0.9149 -0.4037 0.4037 -0.9149 22.4362 298.8722)" fill="none" stroke="#C6C8C9" stroke-miterlimit="10" width="1.689" height="8.436"/>
<rect x="14.035" y="114.168" transform="matrix(-0.423 -0.9061 0.9061 -0.423 -86.1023 181.9434)" fill="#C6C8C9" width="1.688" height="8.437"/>
<rect x="14.035" y="114.168" transform="matrix(-0.423 -0.9061 0.9061 -0.423 -86.1023 181.9434)" fill="none" stroke="#C6C8C9" stroke-miterlimit="10" width="1.688" height="8.437"/>
<rect x="0.536" y="79.579" transform="matrix(-0.9996 -0.0295 0.0295 -0.9996 7.1327 160.9481)" fill="#C6C8C9" width="8.436" height="1.685"/>
<g>
	<defs>
		<rect id="SVGID_5_" width="162.193" height="161.097"/>
	</defs>
	<clipPath id="SVGID_6_">
		<use xlink:href="#SVGID_5_"  overflow="visible"/>
	</clipPath>
	
		<rect x="3.911" y="76.203" transform="matrix(0.0292 -0.9996 0.9996 0.0292 -75.7711 82.8224)" clip-path="url(#SVGID_6_)" fill="none" stroke="#C6C8C9" stroke-miterlimit="10" width="1.687" height="8.435"/>
</g>
<rect x="14.035" y="38.237" transform="matrix(0.5228 -0.8524 0.8524 0.5228 -29.0908 32.9414)" fill="#C6C8C9" width="1.686" height="8.435"/>
<rect x="14.035" y="38.237" transform="matrix(0.5228 -0.8524 0.8524 0.5228 -29.0908 32.9414)" fill="none" stroke="#C6C8C9" stroke-miterlimit="10" width="1.686" height="8.435"/>
<rect x="41.878" y="10.394" transform="matrix(0.8433 -0.5374 0.5374 0.8433 -1.1596 25.2475)" fill="#C6C8C9" width="1.685" height="8.436"/>
<rect x="41.878" y="10.394" transform="matrix(0.8433 -0.5374 0.5374 0.8433 -1.1596 25.2475)" fill="none" stroke="#C6C8C9" stroke-miterlimit="10" width="1.685" height="8.436"/>
<rect x="156.617" y="76.203" transform="matrix(-0.011 0.9999 -0.9999 -0.011 239.6077 -76.1458)" fill="#C6C8C9" width="1.688" height="8.436"/>
<g>
	<defs>
		<rect id="SVGID_7_" width="162.193" height="161.097"/>
	</defs>
	<clipPath id="SVGID_8_">
		<use xlink:href="#SVGID_7_"  overflow="visible"/>
	</clipPath>
	
		<rect x="156.617" y="76.203" transform="matrix(-0.011 0.9999 -0.9999 -0.011 239.6077 -76.1458)" clip-path="url(#SVGID_8_)" fill="none" stroke="#C6C8C9" stroke-miterlimit="10" width="1.688" height="8.436"/>
</g>
<rect x="155.315" y="93.43" transform="matrix(0.2083 -0.9781 0.9781 0.2083 29.6498 228.8962)" fill="#C6C8C9" width="1.8" height="5.408"/>
<rect x="153.222" y="101.234" transform="matrix(0.3081 -0.9514 0.9514 0.3081 7.7585 218.5417)" fill="#C6C8C9" width="1.8" height="5.407"/>
<rect x="150.328" y="108.777" transform="matrix(0.4064 -0.9137 0.9137 0.4064 -12.0905 204.3538)" fill="#C6C8C9" width="1.8" height="5.409"/>
<rect x="142.258" y="122.755" transform="matrix(0.5893 -0.8079 0.8079 0.5893 -42.564 167.1927)" fill="#C6C8C9" width="1.8" height="5.408"/>
<rect x="137.171" y="129.034" transform="matrix(0.6702 -0.7422 0.7422 0.6702 -52.2359 145.9315)" fill="#C6C8C9" width="1.803" height="5.406"/>
<rect x="131.458" y="134.748" transform="matrix(0.7431 -0.6692 0.6692 0.7431 -57.9778 123.8886)" fill="#C6C8C9" width="1.798" height="5.407"/>
<rect x="125.178" y="139.833" transform="matrix(0.8095 -0.5872 0.5872 0.8095 -59.6708 101.1884)" fill="#C6C8C9" width="1.801" height="5.406"/>
<rect x="111.2" y="147.903" transform="matrix(0.9128 -0.4084 0.4084 0.9128 -51.7324 58.9145)" fill="#C6C8C9" width="1.801" height="5.404"/>
<rect x="103.658" y="150.8" transform="matrix(0.9509 -0.3095 0.3095 0.9509 -42.38 39.9037)" fill="#C6C8C9" width="1.798" height="5.405"/>
<rect x="95.851" y="152.889" transform="matrix(0.978 -0.2086 0.2086 0.978 -30.3286 23.6059)" fill="#C6C8C9" width="1.802" height="5.407"/>
<rect x="87.871" y="154.154" transform="matrix(0.9946 -0.1042 0.1042 0.9946 -15.8578 10.1013)" fill="#C6C8C9" width="1.8" height="5.406"/>
<rect x="71.734" y="154.153" transform="matrix(0.9946 0.1036 -0.1036 0.9946 16.6477 -6.683)" fill="#C6C8C9" width="1.8" height="5.408"/>
<rect x="63.753" y="152.889" transform="matrix(0.978 0.2088 -0.2088 0.978 33.9078 -10.0691)" fill="#C6C8C9" width="1.801" height="5.408"/>
<rect x="55.947" y="150.799" transform="matrix(0.951 0.309 -0.309 0.951 50.2227 -10.0538)" fill="#C6C8C9" width="1.798" height="5.407"/>
<rect x="48.402" y="147.904" transform="matrix(0.9133 0.4072 -0.4072 0.9133 65.6073 -7.0238)" fill="#C6C8C9" width="1.803" height="5.407"/>
<rect x="34.426" y="139.833" transform="matrix(0.8095 0.5871 -0.5871 0.8095 90.4077 6.4095)" fill="#C6C8C9" width="1.8" height="5.407"/>
<rect x="28.147" y="134.747" transform="matrix(0.7436 0.6687 -0.6687 0.7436 99.3574 15.8248)" fill="#C6C8C9" width="1.799" height="5.408"/>
<rect x="156.58" y="85.447" transform="matrix(0.1048 -0.9945 0.9945 0.1048 53.3049 235.5226)" fill="#C6C8C9" width="1.798" height="5.409"/>
<rect x="17.349" y="122.755" transform="matrix(0.5884 0.8086 -0.8086 0.5884 108.9544 36.886)" fill="#C6C8C9" width="1.798" height="5.406"/>
<rect x="9.279" y="108.778" transform="matrix(0.4068 0.9135 -0.9135 0.4068 107.8764 56.8306)" fill="#C6C8C9" width="1.799" height="5.406"/>
<rect x="6.38" y="101.233" transform="matrix(0.3073 0.9516 -0.9516 0.3073 103.9495 65.0651)" fill="#C6C8C9" width="1.8" height="5.409"/>
<rect x="4.292" y="93.43" transform="matrix(0.2084 0.978 -0.978 0.2084 98.1312 71.0197)" fill="#C6C8C9" width="1.799" height="5.405"/>
<rect x="3.028" y="85.447" transform="matrix(0.104 0.9946 -0.9946 0.104 91.1903 75.0758)" fill="#C6C8C9" width="1.798" height="5.406"/>
<rect x="3.027" y="69.31" transform="matrix(-0.104 0.9946 -0.9946 -0.104 75.9569 75.5939)" fill="#C6C8C9" width="1.799" height="5.406"/>
<rect x="4.29" y="61.328" transform="matrix(-0.2082 0.9781 -0.9781 -0.2082 68.8992 72.2856)" fill="#C6C8C9" width="1.801" height="5.407"/>
<polygon fill="#C6C8C9" points="9.576,57.919 10.128,56.206 4.99,54.537 4.432,56.247 "/>
<polygon fill="#C6C8C9" points="12.281,50.604 13.013,48.961 8.075,46.757 7.343,48.407 "/>
<rect x="17.347" y="32.001" transform="matrix(-0.5879 0.809 -0.809 -0.5879 57.0495 40.346)" fill="#C6C8C9" width="1.8" height="5.409"/>
<rect x="22.434" y="25.722" transform="matrix(-0.6695 0.7428 -0.7428 -0.6695 60.0707 30.1245)" fill="#C6C8C9" width="1.798" height="5.408"/>
<rect x="28.147" y="20.008" transform="matrix(-0.7433 0.669 -0.669 -0.7433 65.8306 20.1618)" fill="#C6C8C9" width="1.8" height="5.408"/>
<rect x="34.427" y="14.924" transform="matrix(-0.8097 0.5869 -0.5869 -0.8097 74.2751 11.166)" fill="#C6C8C9" width="1.8" height="5.407"/>
<rect x="48.401" y="6.853" transform="matrix(-0.914 0.4057 -0.4057 -0.914 98.2421 -1.7078)" fill="#C6C8C9" width="1.802" height="5.408"/>
<rect x="55.948" y="3.959" transform="matrix(-0.9506 0.3103 -0.3103 -0.9506 112.9568 -4.6431)" fill="#C6C8C9" width="1.799" height="5.407"/>
<rect x="63.752" y="1.867" transform="matrix(-0.9782 0.2078 -0.2078 -0.9782 128.8424 -4.392)" fill="#C6C8C9" width="1.8" height="5.407"/>
<rect x="71.734" y="0.605" transform="matrix(-0.9945 0.105 -0.105 -0.9945 145.213 -1.0287)" fill="#C6C8C9" width="1.8" height="5.406"/>
<rect x="156.578" y="69.309" transform="matrix(-0.1048 -0.9945 0.9945 -0.1048 102.3652 236.1693)" fill="#C6C8C9" width="1.798" height="5.406"/>
<rect x="155.313" y="61.327" transform="matrix(-0.2082 -0.9781 0.9781 -0.2082 126.1087 230.152)" fill="#C6C8C9" width="1.801" height="5.407"/>
<rect x="153.222" y="53.522" transform="matrix(-0.3081 -0.9514 0.9514 -0.3081 148.1129 220.175)" fill="#C6C8C9" width="1.8" height="5.408"/>
<polygon fill="#C6C8C9" points="148.392,48.962 149.123,50.604 154.064,48.407 153.333,46.758 "/>
<rect x="142.257" y="32.002" transform="matrix(-0.5889 -0.8082 0.8082 -0.5889 199.4102 170.8451)" fill="#C6C8C9" width="1.801" height="5.407"/>
<rect x="137.171" y="25.724" transform="matrix(-0.6707 -0.7417 0.7417 -0.6707 209.5908 149.904)" fill="#C6C8C9" width="1.801" height="5.405"/>
<rect x="131.46" y="20.009" transform="matrix(-0.7429 -0.6694 0.6694 -0.7429 215.4912 128.1819)" fill="#C6C8C9" width="1.798" height="5.407"/>
<rect x="125.177" y="14.926" transform="matrix(-0.8098 -0.5866 0.5866 -0.8098 217.8401 105.8663)" fill="#C6C8C9" width="1.8" height="5.405"/>
<rect x="111.203" y="6.854" transform="matrix(-0.9138 -0.4062 0.4062 -0.9138 210.6599 63.8233)" fill="#C6C8C9" width="1.8" height="5.406"/>
<rect x="103.659" y="3.956" transform="matrix(-0.9507 -0.31 0.31 -0.9507 201.899 45.4108)" fill="#C6C8C9" width="1.799" height="5.41"/>
<rect x="95.85" y="1.866" transform="matrix(-0.9782 -0.2076 0.2076 -0.9782 190.4461 29.1234)" fill="#C6C8C9" width="1.802" height="5.408"/>
<rect x="22.433" y="129.034" transform="matrix(0.669 0.7433 -0.7433 0.669 105.6439 26.2668)" fill="#C6C8C9" width="1.8" height="5.408"/>
<rect x="87.871" y="0.602" transform="matrix(-0.9945 -0.105 0.105 -0.9945 176.7044 15.9124)" fill="#C6C8C9" width="1.8" height="5.408"/>
</svg>
